<?xml version="1.0" encoding="UTF-8" standalone="no"?>
<!-- Created with Inkscape (http://www.inkscape.org/) -->

<svg
   xmlns:dc="http://purl.org/dc/elements/1.1/"
   xmlns:cc="http://creativecommons.org/ns#"
   xmlns:rdf="http://www.w3.org/1999/02/22-rdf-syntax-ns#"
   xmlns:svg="http://www.w3.org/2000/svg"
   xmlns="http://www.w3.org/2000/svg"
   xmlns:sodipodi="http://sodipodi.sourceforge.net/DTD/sodipodi-0.dtd"
   xmlns:inkscape="http://www.inkscape.org/namespaces/inkscape"
   width="1052.3622"
   height="744.09448"
   id="svg2"
   version="1.1"
   inkscape:version="0.48.5 r10040"
   sodipodi:docname="game.svg">
  <defs
     id="defs4" />
  <sodipodi:namedview
     id="base"
     pagecolor="#ffffff"
     bordercolor="#666666"
     borderopacity="1.0"
     inkscape:pageopacity="0.0"
     inkscape:pageshadow="2"
     inkscape:zoom="0.7"
     inkscape:cx="680.71429"
     inkscape:cy="337.14286"
     inkscape:document-units="px"
     inkscape:current-layer="layer1"
     showgrid="false"
     inkscape:window-width="1366"
     inkscape:window-height="768"
     inkscape:window-x="0"
     inkscape:window-y="0"
     inkscape:window-maximized="0" />
  <metadata
     id="metadata7">
    <rdf:RDF>
      <cc:Work
         rdf:about="">
        <dc:format>image/svg+xml</dc:format>
        <dc:type
           rdf:resource="http://purl.org/dc/dcmitype/StillImage" />
        <dc:title></dc:title>
      </cc:Work>
    </rdf:RDF>
  </metadata>
  <g
     inkscape:label="Layer 1"
     inkscape:groupmode="layer"
     id="layer1"
     transform="translate(0,-308.2677)">
    <path
       style="fill:#916f6f;stroke:#ffffff;stroke-width:1px;stroke-linecap:butt;stroke-linejoin:miter;stroke-opacity:0"
       d="m -117.14286,118.3802 264.28572,0 0,517.14285 177.14285,0 0,-352.85714 218.57143,0 0,314.28572 220,0 0,-531.428577 248.57146,0 0,398.571427 341.4285,0 0,487.14286 -1482.8571,0 z"
       id="path3000"
       inkscape:connector-curvature="0"
       transform="translate(0,308.2677)" />
    <path
       style="fill:#483737;stroke:#000000;stroke-width:1px;stroke-linecap:butt;stroke-linejoin:miter;stroke-opacity:0"
       d="m -34.285714,445.52305 102.857143,0 0,-245.71428 230.000001,0 0,327.14286 108.57143,0 0,-457.142862 234.28571,0 0,261.428572 151.42857,0 0,134.28571 130.07509,75.09889 0,-342.24174 221.35347,0 0,370 -20,211.42857 -1158.571414,0 z"
       id="path2985"
       inkscape:connector-curvature="0"
       transform="translate(0,308.2677)" />
    <path
       style="fill:#000000;stroke:none;stroke-width:1px;stroke-linecap:butt;stroke-linejoin:miter;stroke-opacity:1"
       d="m -71.428571,665.52305 c 5.714285,-2.85714 1345.714271,0 1345.714271,0 l 0,152.85715 -1351.428557,0 z"
       id="path3002"
       inkscape:connector-curvature="0"
       transform="translate(0,308.2677)" />
    <path
       style="fill:#ff00ff;stroke:#ffffff;stroke-width:1px;stroke-linecap:butt;stroke-linejoin:miter;stroke-opacity:0"
       d="m 117.14286,986.6479 c 0,-1.90476 -0.26938,-3.82867 0,-5.71429 0.21296,-1.49071 1.06335,-2.82483 1.42857,-4.28571 0.34648,-1.38592 -0.28017,-2.88489 0,-4.28572 0.29532,-1.4766 1.06335,-2.82482 1.42857,-4.28571 0.11549,-0.46197 0,-0.95238 0,-1.42857 0,-1.42857 0,-2.85714 0,-4.28572 0,-3.33333 0,-6.66666 0,-10 0,-0.95238 -0.18678,-1.92325 0,-2.85714 0.29532,-1.4766 1.13325,-2.80911 1.42857,-4.28571 0.18678,-0.93389 -0.15657,-1.91772 0,-2.85715 0.32278,-1.93667 1.10579,-3.77761 1.42857,-5.71428 0.31314,-1.87885 -0.46197,-3.8664 0,-5.71429 0.25825,-1.033 1.21975,-1.81302 1.42857,-2.85714 0.28017,-1.40083 -0.17719,-2.86817 0,-4.28571 0.47619,-2.38096 0.95239,-4.76191 1.42858,-7.14286 0.47619,-0.95238 1.17032,-1.82414 1.42857,-2.85714 0.23098,-0.92395 0,-1.90477 0,-2.85715 0.47619,-0.95238 1.09185,-1.84699 1.42857,-2.85714 0.15058,-0.45175 -0.21296,-1.00265 0,-1.42857 0.30117,-0.60234 1.05502,-0.86824 1.42857,-1.42857 0.59064,-0.88597 0.67565,-2.10422 1.42857,-2.85715 0.33672,-0.33671 1.09186,0.33672 1.42857,0 5.26963,-5.26963 -3.42104,-0.57644 4.28572,-5.71428 0.39621,-0.26414 1.09185,0.33672 1.42857,0 0.98525,-0.98526 -1.05665,-2.67118 -1.42857,-2.85714 -4.15577,-2.07789 -5.42284,-1.02628 -10,-2.85715 -0.62527,-0.25011 -0.82624,-1.1274 -1.42857,-1.42857 -0.74346,-3.34097 -4.04289,-0.87144 -5.71429,-1.42857 -1.01015,-0.33672 -1.84699,-1.09185 -2.85714,-1.42857 -1.86263,-0.62088 -3.85166,-0.8077 -5.71429,-1.42857 -1.01015,-0.33672 -1.84699,-1.09186 -2.85714,-1.42857 -0.45176,-0.15059 -0.95238,0 -1.42857,0 -1.42857,-0.4762 -2.88757,-0.86932 -4.28572,-1.42858 -0.98863,-0.39545 -1.84699,-1.09185 -2.85714,-1.42857 -0.451754,-0.15058 -1.091854,0.33672 -1.428571,0 -0.336718,-0.33672 0.336717,-1.09185 0,-1.42857 -0.336718,-0.33672 -1.002654,0.21296 -1.428572,0 -0.602338,-0.30117 -0.952381,-0.95238 -1.428571,-1.42857 -1.816834,-1.81683 -1.703983,-1.40281 -2.857143,-4.28571 -1.118515,-2.79629 -1.904762,-5.71429 -2.857143,-8.57143 -0.47619,-1.42857 -1.133251,-2.80911 -1.428571,-4.28572 -0.186778,-0.93388 0,-1.90476 0,-2.85714 0,-2.38095 0,-4.76191 0,-7.14286 0,-2.85714 -0.315519,-5.73176 0,-8.57143 0.510252,-4.59227 1.567312,-9.7713 2.857142,-14.28571 0.413688,-1.44791 1.014884,-2.83781 1.428572,-4.28571 0.47619,-1.90477 0.952381,-3.80953 1.428571,-5.71429 0.476191,-0.95238 1.091854,-1.84699 1.428572,-2.85714 1.417539,-4.25262 -3.382672,2.93115 1.428571,-4.28572 1.320715,-1.98107 2.965003,-3.73321 4.285713,-5.71428 0.59064,-0.88597 0.7897,-2.00531 1.42857,-2.85715 1.61625,-2.15499 4.03152,-3.61082 5.71429,-5.71428 1.07256,-1.3407 1.78458,-2.94502 2.85714,-4.28572 1.68277,-2.10345 4.09804,-3.55929 5.71429,-5.71428 0.63887,-0.85184 0.67565,-2.10422 1.42857,-2.85714 1.21405,-1.21406 2.94502,-1.78459 4.28571,-2.85715 1.05173,-0.84138 1.77965,-2.04902 2.85715,-2.85714 0.85183,-0.63888 1.90476,-0.95238 2.85714,-1.42857 0.95238,-0.47619 1.84699,-1.09186 2.85714,-1.42857 0.90351,-0.30117 1.90476,0 2.85714,0 0.95239,0 1.95364,-0.30117 2.85715,0 0.63887,0.21296 0.77524,1.26524 1.42857,1.42857 1.38592,0.34648 2.8715,-0.20203 4.28571,0 6.23503,0.89072 4.57272,1.50032 10,2.85714 0.46198,0.11549 0.97682,-0.15058 1.42857,0 1.01016,0.33672 1.86851,1.03312 2.85715,1.42857 2.79628,1.11852 5.75149,1.79967 8.57143,2.85715 2.40108,0.9004 4.74176,1.95673 7.14285,2.85714 1.40997,0.52874 2.99446,0.65382 4.28572,1.42857 1.15493,0.69296 1.73648,2.11003 2.85714,2.85714 0.39621,0.26415 0.97682,-0.15058 1.42857,0 2.02031,0.67344 3.64828,2.34064 5.71429,2.85715 0.92394,0.23098 1.95363,-0.30117 2.85714,0 1.27775,0.42591 1.73648,2.11003 2.85714,2.85714 1.77193,1.18128 3.94237,1.67586 5.71429,2.85714 2.83009,-0.1426 0.67565,2.10422 1.42857,2.85714 0.33672,0.33672 1.09186,-0.33671 1.42858,0 0.33671,0.33672 -0.21296,1.00266 0,1.42858 0.29553,0.59107 3.68019,3.88203 4.28571,4.28571 0.88596,0.59064 1.90476,0.95238 2.85714,1.42857 1.42857,1.42857 2.66947,3.07353 4.28572,4.28572 0.38095,0.28571 1.09185,-0.33672 1.42857,0 0.75292,0.75292 0.83793,1.97118 1.42857,2.85714 0.37355,0.56033 1.1274,0.82623 1.42857,1.42857 0.21296,0.42592 -0.33672,1.09185 0,1.42857 0.75292,0.75292 1.90476,0.95238 2.85714,1.42857 0.95239,0.47619 1.90477,0.95238 2.85715,1.42857 4.58446,2.29223 9.1299,3.64124 14.28571,4.28572 1.41754,0.17719 2.85714,0 4.28572,0 2.38095,0 4.7619,0 7.14285,0 0.95238,0 1.9332,0.23098 2.85715,0 1.033,-0.25825 1.90476,-0.95238 2.85714,-1.42857 1.90476,-0.95238 3.80952,-1.90477 5.71428,-2.85715 0.95239,-0.47619 1.97118,-0.83793 2.85715,-1.42857 1.67563,-1.11709 3.52037,-4.75761 4.28571,-5.71428 0.84138,-1.05173 2.07429,-1.76115 2.85714,-2.85715 1.6139,-2.25944 2.8141,-4.78826 4.28572,-7.14285 0.90997,-1.45596 1.97379,-2.81346 2.85714,-4.28572 0.54783,-0.91305 0.88074,-1.94409 1.42857,-2.85714 0.88336,-1.47226 1.94718,-2.82976 2.85715,-4.28571 3.27211,-5.23539 6.28283,-10.75807 10,-15.71429 1.82946,-2.43929 3.76229,-4.80047 5.71428,-7.14286 0.43112,-0.51734 1.02451,-0.88982 1.42857,-1.42857 2.0427,-2.72359 4.15085,-6.57675 7.14286,-8.57143 0.39621,-0.26414 1.03236,0.26415 1.42857,0 2.88579,-1.92386 2.22506,-3.58787 5.71429,-4.28571 3.26643,-0.65329 5.59217,0.23687 8.57143,1.42857 0.98863,0.39545 1.84699,1.09185 2.85714,1.42857 0.45175,0.15059 1.00265,-0.21296 1.42857,0 0.60234,0.30117 1.05502,0.86824 1.42857,1.42857 1.54021,2.31031 2.55116,4.97466 4.28572,7.14286 0.29747,0.37184 1.09185,-0.33672 1.42857,0 0.75292,0.75292 0.88074,1.94409 1.42857,2.85714 0.88335,1.47226 1.82698,2.91217 2.85714,4.28572 0.80812,1.07749 2.11004,1.73648 2.85714,2.85714 1.18129,1.77192 1.67586,3.94236 2.85715,5.71429 0.27657,0.41485 2.80701,2.6566 2.85714,2.85714 0.94692,3.7877 -0.54639,5.04271 -1.42857,8.57143 -0.11549,0.46197 0,0.95238 0,1.42857 0,1.50431 0.29596,5.959 0,7.14286 -0.36522,1.46088 -0.95238,2.85714 -1.42857,4.28571 -0.47619,1.42857 -1.06335,2.82483 -1.42857,4.28571 -0.1155,0.46198 0.15058,0.97682 0,1.42858 -0.33672,1.01015 -1.09186,1.84699 -1.42858,2.85714 -0.15058,0.45175 0,0.95238 0,1.42857 -0.47619,1.42857 -0.75513,2.93884 -1.42857,4.28571 -0.30117,0.60234 -1.21561,0.7897 -1.42857,1.42858 -0.76783,2.3035 -0.76152,4.80817 -1.42857,7.14285 -0.29252,1.02383 -1.00913,1.87844 -1.42857,2.85715 -1.01015,2.35702 -1.84699,4.78583 -2.85714,7.14285 -0.83889,1.9574 -2.06624,3.73701 -2.85715,5.71429 -0.55925,1.39814 -0.86931,2.88757 -1.42857,4.28571 -1.18636,2.96591 -3.02738,5.63533 -4.28571,8.57143 -0.59318,1.38409 -0.59328,3.03278 -1.42857,4.28572 -0.26415,0.39621 -1.09186,-0.33672 -1.42858,0 -7.30054,7.30054 5.98997,-1.99248 -4.28571,5.71428 -0.85184,0.63888 -2.00531,0.7897 -2.85714,1.42857 -1.0775,0.80812 -1.715,2.14331 -2.85715,2.85715 -2.70883,1.69301 -5.77903,2.73438 -8.57142,4.28571 -1.50087,0.83381 -2.75005,2.08931 -4.28572,2.85714 -1.34687,0.67344 -2.85714,0.95238 -4.28571,1.42857 -2.85715,0.95238 -5.74106,1.82792 -8.57143,2.85715 -2.40997,0.87635 -4.71009,2.04622 -7.14286,2.85714 -4.97732,1.65911 -9.01051,1.8021 -14.28571,2.85714 -7.44325,1.48865 -3.64606,1.04173 -10,2.85715 -1.88784,0.53938 -3.82009,0.91197 -5.71429,1.42857 -3.34456,0.91215 -6.65543,1.94499 -10,2.85714 -1.8942,0.5166 -3.78903,1.04352 -5.71428,1.42857 -4.87782,0.97556 5.16875,-3.23559 -5.71429,1.42857 -1.9574,0.83889 -3.73701,2.06624 -5.71429,2.85715 -0.44213,0.17685 -1.09185,-0.33672 -1.42857,0 -0.33671,0.33671 0.21296,1.00265 0,1.42857 -2.17826,4.35651 -1.13252,-2.61278 -2.85714,4.28571 -0.23099,0.92395 0,1.90476 0,2.85714 0,5.79156 -0.45175,2.93046 1.42857,8.57143 0.47619,1.42857 0.95238,2.85715 1.42857,4.28572 0.47619,1.42857 0.75514,2.93884 1.42857,4.28571 1.24176,2.48351 3.04397,4.65935 4.28572,7.14286 0.67343,1.34687 0.65382,2.99446 1.42857,4.28571 0.69296,1.15493 2.01576,1.80542 2.85714,2.85715 1.07256,1.34069 1.78459,2.94501 2.85715,4.28571 0.84138,1.05173 2.11003,1.73648 2.85714,2.85714 0.26414,0.39622 -0.33672,1.09186 0,1.42857 1.21405,1.21406 2.94502,1.78459 4.28571,2.85715 1.05173,0.84138 1.82245,1.99489 2.85715,2.85714 2.83317,3.07087 6.80129,4.58389 10,7.14286 1.05172,0.84138 1.80541,2.01576 2.85714,2.85714 1.3407,1.07256 2.94502,1.78459 4.28571,2.85714 2.61324,2.09059 4.52962,5.05227 7.14286,7.14286 0.83146,0.66517 2.00531,0.78969 2.85714,1.42857 1.0775,0.80812 1.76115,2.07429 2.85715,2.85714 1.95156,1.39397 8.95293,5.07983 11.42857,7.14286 1.55204,1.29337 2.85714,2.85714 4.28571,4.28572 1.90476,0.95238 3.96966,1.6359 5.71429,2.85714 6.07222,-0.29178 6.48779,5.9373 10,8.5714 2.74708,2.0603 5.89003,3.5692 8.57143,5.7143 3.83255,3.0661 2.41423,3.0178 5.71428,7.1429 1.68277,2.1034 4.22007,3.4729 5.71429,5.7143 0.26414,0.3962 -0.15059,0.9768 0,1.4285 0.33671,1.0102 1.09185,1.847 1.42857,2.8572 0.40481,1.2144 -2.28082,8.8473 -2.85714,10 -5.86128,11.7225 -0.38028,2.333 -4.28572,4.2857 -0.60234,0.3011 -0.95238,0.9524 -1.42857,1.4286 -0.95238,0.9523 -1.70221,2.1641 -2.85714,2.8571 -1.29126,0.7747 -2.93885,0.7551 -4.28572,1.4286 -1.53567,0.7678 -2.81346,1.9738 -4.28571,2.8571 -3.4693,2.0816 -7.73459,3.0544 -11.42857,4.2857 -1.42857,0.4762 -2.85715,0.9524 -4.28572,1.4286 -1.42857,0.4762 -2.80035,1.181 -4.28571,1.4286 -1.40914,0.2348 -2.86423,-0.1422 -4.28572,0 -3.35046,0.335 -6.65342,1.0567 -10,1.4285 -4.53439,0.5039 -9.78633,-0.5624 -14.28571,0 -1.49422,0.1868 -2.795,1.2156 -4.28571,1.4286 -0.57144,0.082 -10.09345,0.2225 -11.42858,0 -2.39506,-0.3992 -4.7335,-1.1274 -7.14285,-1.4286 -3.83485,-0.4793 -4.99302,0.9571 -8.57143,-1.4285 -0.39622,-0.2642 0.21296,-1.0027 0,-1.4286 -0.30117,-0.6023 -0.95238,-0.9524 -1.42857,-1.4286 -1.42857,-2.3809 -3.19194,-4.5907 -4.28572,-7.1428 -0.37516,-0.8754 0.18678,-1.9233 0,-2.8572 -0.29532,-1.4766 -1.18101,-2.8003 -1.42857,-4.2857 -0.23485,-1.4091 0,-2.8571 0,-4.2857 0,-1.4286 0,-2.8571 0,-4.2857 0,-0.9524 0.18678,-1.9233 0,-2.8572 -0.29532,-1.4766 -1.13325,-2.8091 -1.42857,-4.2857 -0.18678,-0.9339 0,-1.9047 0,-2.8571 0,-3.3334 0,-6.6667 0,-10 0,-0.9524 0.18678,-1.9233 0,-2.8572 0.32783,-2.8687 -2.23519,-4.655 -2.85714,-7.1428 -0.23099,-0.924 0.42591,-2.0053 0,-2.85716 -0.21296,-0.42592 -1.16443,0.39622 -1.42857,0 -2.4809,-7.44269 0.1965,-1.54009 -4.28572,-7.14286 -1.07256,-1.34069 -1.82698,-2.91217 -2.85714,-4.28571 -1.21218,-1.61624 -3.07353,-2.66947 -4.28572,-4.28571 -6.09273,-8.12364 4.4622,3.03362 -4.28571,-5.71429 -1.90477,-1.90476 -4.03152,-3.61083 -5.71429,-5.71429 -0.66517,-0.83146 -0.67565,-2.10422 -1.42857,-2.85714 -0.33672,-0.33672 -1.03236,0.26414 -1.42857,0 -7.97248,-5.31498 3.23669,-0.52451 -7.14286,-5.71428 -0.42592,-0.21296 -0.95238,0 -1.42857,0 -0.95238,0 -1.90476,0 -2.85714,0 -0.34647,0 -4.23978,-0.046 -4.28572,0 -0.33672,0.33671 0.33672,1.09185 0,1.42857 -0.33672,0.33671 -1.16443,-0.39622 -1.42857,0 -0.83529,1.25294 -0.86931,2.88757 -1.42857,4.28571 -0.39546,0.98864 -1.09186,1.84699 -1.42857,2.85714 -0.37452,1.12357 0.11754,9.29476 0,10 -0.17505,1.05031 -1.21975,1.81303 -1.42857,2.85715 -0.28017,1.40083 0,2.85714 0,4.28571 0,3.80952 0,7.61905 0,11.42856 0,4.2857 0,8.5714 0,12.8572 0,1.4285 -0.23486,2.8765 0,4.2857 0.24756,1.4853 1.26227,2.789 1.42857,4.2857 0.42069,3.7862 0,7.619 0,11.4286 0,1.4285 0.28016,2.8848 0,4.2857 -0.20883,1.0441 -1.21975,1.813 -1.42857,2.8571 -0.28017,1.4008 0.34648,2.8998 0,4.2857 -0.16334,0.6533 -1.05502,0.8683 -1.42858,1.4286 -1.75824,2.6374 -2.52747,5.9341 -4.28571,8.5714 -1.45649,2.1848 -1.97257,1.1223 -4.28571,2.8572 -1.0775,0.8081 -1.68774,2.1889 -2.85715,2.8571 -2.22649,1.2723 -4.74177,1.9567 -7.14285,2.8572 -6.3485,2.3806 -7.61145,1.4285 -15.71429,1.4285 -2.38095,0 -4.78583,0.3367 -7.14286,0 -1.94365,-0.2776 -3.77063,-1.1509 -5.71428,-1.4285 -1.41422,-0.2021 -2.87658,0.2348 -4.28572,0 -0.0189,-0 -8.4778,-2.8291 -8.57143,-2.8572 -3.32051,-0.9961 -6.741996,-1.6724 -9.999996,-2.8571 -2.001373,-0.7278 -3.720289,-2.1094 -5.714285,-2.8572 -1.838374,-0.6894 -3.875912,-0.7392 -5.714286,-1.4285 -7.061156,-3.5306 -3.69398,-2.1838 -10,-4.2858 -1.428571,-0.4762 -2.857143,-0.9523 -4.285714,-1.4285 -0.476191,-0.4762 -0.826233,-1.1274 -1.428572,-1.4286 -0.425917,-0.213 -1.091854,0.3367 -1.428571,0 -0.336718,-0.3367 0.150585,-0.9768 0,-1.4286 -0.673435,-2.0203 -2.183708,-3.694 -2.857143,-5.7143 -0.670051,-2.0101 0.610878,-1.2217 1.428572,-2.8571 0.212958,-0.4259 0,-0.9524 0,-1.4286 0.952381,-0.9524 2.110033,-1.7365 2.857142,-2.8571 0.264143,-0.3962 -0.336717,-1.0919 0,-1.4286 0.336718,-0.3367 1.091854,0.3367 1.428572,0 0.336717,-0.3367 -0.336718,-1.0918 0,-1.4286 2.955765,-2.9557 -0.115543,4.5168 2.857143,-1.4285 1.264443,-2.5289 -2.12491,-0.4882 1.428571,-2.8572 0.885963,-0.5906 2.10422,-0.6756 2.857143,-1.4285 3.809524,-3.8096 -1.428571,-2.381 4.285714,-4.2858 1.285715,-0.4285 3,0.4286 4.285715,0 1.010152,-0.3367 1.82414,-1.1703 2.857142,-1.4285 0.04776,-0.012 4.278126,0.01 4.285714,0 0.336718,-0.3368 -0.336717,-1.0919 0,-1.4286 0.673435,-0.6734 1.953635,0.3012 2.857143,0 1.010153,-0.3367 1.846991,-1.0919 2.857143,-1.4286 0.451754,-0.1506 1.091854,0.3367 1.428572,0 0.336717,-0.3367 -0.336718,-1.0918 0,-1.4285 0.336717,-0.3368 0.952381,0 1.428571,0 0.95238,-0.9524 2.11003,-1.7365 2.85714,-2.8572 0.26415,-0.3962 -0.33671,-1.0918 0,-1.4286 0.33672,-0.3367 1.09186,0.3368 1.42857,0 2.95577,-2.9557 -4.516796,0.1156 1.42858,-2.8571 0.42591,-0.213 1.00265,0.213 1.42857,0 0.60234,-0.3012 0.95238,-0.9524 1.42857,-1.4286 0.47619,-0.4762 0.95238,-0.9524 1.42857,-1.4285 0.47619,-0.4762 1.1274,-0.8263 1.42857,-1.4286 0.98526,-1.9705 -1.73008,-1.2778 1.42857,-2.85716 0.42592,-0.21296 1.09186,0.33672 1.42857,0 0.33672,-0.33672 -0.21295,-1.00265 0,-1.42857 0.30117,-0.60234 1.12741,-0.82623 1.42858,-1.42857 0.21295,-0.42592 -0.33672,-1.09186 0,-1.42857 0.33671,-0.33672 1.00265,0.21296 1.42857,0 0.60234,-0.30117 1.42857,-0.75514 1.42857,-1.42857 0,-2.42811 -3.80953,-6.66667 -1.42857,-7.14286 2.38095,-0.47619 3.80952,6.66666 1.42857,7.14286 -2.38095,0.47619 -0.95238,-4.76191 -1.42857,-7.14286 z"
       id="player"
       inkscape:connector-curvature="0"
       inkscape:label="#path3004" />
    <path
       style="fill:#00ff00;stroke:#ffffff;stroke-width:1px;stroke-linecap:butt;stroke-linejoin:miter;stroke-opacity:0"
       d="m 541.42857,863.79076 c -4.44934,-1.62669 -8.36796,-1.42857 -12.85714,-1.42857 -1.42857,0 -2.88488,-0.28017 -4.28571,0 -1.04412,0.20882 -1.81303,1.21974 -2.85715,1.42857 -2.33471,0.46694 -4.7619,0 -7.14285,0 -0.47619,0 -0.97682,-0.15059 -1.42858,0 -1.01015,0.33672 -1.83331,1.13605 -2.85714,1.42857 -2.33468,0.66705 -4.73915,1.08519 -7.14286,1.42857 -0.9428,0.13469 -2.0053,-0.42592 -2.85714,0 -0.42592,0.21296 0.33672,1.09185 0,1.42857 -0.33672,0.33672 -1.00265,-0.21296 -1.42857,0 -0.60234,0.30117 -0.82623,1.1274 -1.42857,1.42857 -0.42592,0.21296 -1.09186,-0.33671 -1.42857,0 -0.33672,0.33672 0.26414,1.03236 0,1.42858 -0.74711,1.12066 -2.04902,1.77964 -2.85715,2.85714 -0.63887,0.85183 -0.88073,1.94409 -1.42857,2.85714 -0.88335,1.47226 -2.08931,2.75005 -2.85714,4.28572 -0.21296,0.42591 0.11549,0.96659 0,1.42857 -0.36522,1.46088 -0.75514,2.93884 -1.42857,4.28571 -0.76784,1.53567 -2.21949,2.69159 -2.85714,4.28572 -0.35371,0.88426 0.23098,1.93319 0,2.85714 -0.25825,1.033 -1.17032,1.82414 -1.42858,2.85714 -0.23098,0.92395 0.18678,1.92326 0,2.85714 -0.29532,1.47661 -1.13325,2.80911 -1.42857,4.28572 -0.18677,0.93388 0.18678,1.92325 0,2.85714 -0.29532,1.4766 -1.18101,2.80036 -1.42857,4.28572 -0.23485,1.40913 0.28017,2.88488 0,4.28571 -0.20882,1.04412 -1.21975,1.81303 -1.42857,2.85714 -0.28017,1.40083 0.28017,2.88489 0,4.28572 -0.20882,1.04411 -0.95238,1.90476 -1.42857,2.85714 0,2.85714 0,5.71429 0,8.57143 0,9.35923 -0.45176,-0.8302 1.42857,8.57143 0.18678,0.93388 -0.23099,1.93319 0,2.85714 0.25825,1.033 1.09185,1.84699 1.42857,2.85714 0.15059,0.45176 -0.11549,0.9666 0,1.42857 0.57544,2.30175 3.7031,10.409 4.28572,11.42858 0.66823,1.16941 2.04902,1.77964 2.85714,2.85714 0.63888,0.85183 0.78969,2.00531 1.42857,2.85714 0.80812,1.0775 2.04902,1.77965 2.85714,2.85714 0.63888,0.85184 0.95238,1.90477 1.42857,2.85715 0.4762,0.95238 0.83793,1.97118 1.42858,2.85714 0.37355,0.56033 0.95238,0.95238 1.42857,1.42857 0.95238,0.95238 1.76115,2.07429 2.85714,2.85714 2.25945,1.6139 4.78827,2.8141 7.14286,4.28572 2.9119,1.81994 5.50009,4.17862 8.57143,5.71428 1.34687,0.67344 2.90162,0.83539 4.28571,1.42858 1.9574,0.83888 3.77558,1.97591 5.71429,2.85714 3.30149,1.50068 6.7563,2.66387 10,4.28571 1.53566,0.76784 2.795,2.00533 4.28571,2.85713 1.849,1.0566 3.80952,1.9048 5.71429,2.8572 3.80952,1.9047 7.56141,3.9294 11.42857,5.7142 2.32834,1.0747 4.79951,1.8157 7.14285,2.8572 1.94605,0.8649 3.72029,2.1094 5.71429,2.8571 1.83837,0.6894 3.80952,0.9524 5.71429,1.4286 3.80952,0.9524 7.61904,1.9048 11.42857,2.8571 6.56453,1.6412 13.22674,3.7213 20,4.2858 2.84727,0.2372 5.71428,0 8.57143,0 6.19047,0 12.38095,0 18.57142,0 7.54064,0 1.12475,0.3464 10,-1.4286 0.46695,-0.093 1.00266,0.2129 1.42858,0 0.60233,-0.3012 0.82623,-1.1274 1.42857,-1.4286 0.42592,-0.2129 1.09185,0.3367 1.42857,0 0.75292,-0.7529 0.78969,-2.0053 1.42857,-2.8571 0.80812,-1.0775 2.04902,-1.7797 2.85714,-2.8572 1.43583,-1.9144 2.03398,-5.0849 2.85715,-7.1428 0.39545,-0.9887 1.17032,-1.8242 1.42857,-2.8572 0.23098,-0.9239 -0.18678,-1.9232 0,-2.8571 0.29532,-1.4766 1.18101,-2.80037 1.42857,-4.28573 0.23485,-1.40913 0,-2.85714 0,-4.28571 0,-1.90476 0.21034,-3.82118 0,-5.71429 -0.26814,-2.41325 -1.1274,-4.7335 -1.42857,-7.14285 -0.17719,-1.41754 0.28016,-2.88489 0,-4.28572 -0.20883,-1.04412 -1.25352,-1.80684 -1.42857,-2.85714 -0.31314,-1.87885 0.17245,-3.81735 0,-5.71429 2.39813,-5.51438 -2.17038,-9.47831 -2.85715,-14.28571 -0.26937,-1.88562 0.23626,-3.82423 0,-5.71429 -0.24352,-1.94822 -0.95238,-3.80952 -1.42857,-5.71428 -0.95238,-3.80953 -2.08704,-7.57806 -2.85714,-11.42857 -0.18678,-0.93389 0.18678,-1.92326 0,-2.85715 -0.29532,-1.4766 -1.01488,-2.8378 -1.42857,-4.28571 -0.53939,-1.88784 -0.73918,-3.87591 -1.42857,-5.71429 -0.74775,-1.99399 -2.1094,-3.72029 -2.85715,-5.71428 -0.68939,-1.83838 -1.04352,-3.78903 -1.42857,-5.71429 -0.0934,-0.46694 0.26414,-1.03236 0,-1.42857 -0.74711,-1.12066 -2.16418,-1.70221 -2.85714,-2.85714 -0.77475,-1.29126 -0.86932,-2.88757 -1.42857,-4.28572 -0.39546,-0.98863 -1.03312,-1.8685 -1.42857,-2.85714 -0.55926,-1.39814 -0.75514,-2.93884 -1.42858,-4.28571 -1.24175,-2.48351 -3.04396,-4.65936 -4.28571,-7.14286 -0.67343,-1.34687 -0.75514,-2.93885 -1.42857,-4.28572 -0.76784,-1.53566 -1.97379,-2.81346 -2.85714,-4.28571 -0.54784,-0.91305 -0.88074,-1.94409 -1.42858,-2.85714 -0.88335,-1.47226 -1.97379,-2.81346 -2.85714,-4.28572 -3.74474,-6.24124 1.23133,1.03408 -2.85714,-7.14285 -7.17352,-14.34704 1.79929,7.53167 -5.71429,-10 -0.59318,-1.3841 -0.59327,-3.03278 -1.42857,-4.28572 -0.26414,-0.39621 -1.09185,0.33672 -1.42857,0 -1.50585,-1.50585 -1.57939,-4.01061 -2.85714,-5.71428 -0.80812,-1.0775 -1.90476,-1.90477 -2.85715,-2.85715 -0.95238,-0.95238 -1.80541,-2.01576 -2.85714,-2.85714 -1.34069,-1.07256 -3.07166,-1.64309 -4.28571,-2.85714 -0.33672,-0.33672 0.33672,-1.09186 0,-1.42857 -0.75293,-0.75293 -1.9542,-0.86424 -2.85715,-1.42858 -2.9119,-1.81994 -5.56969,-4.04665 -8.57142,-5.71428 -1.31635,-0.73131 -2.90163,-0.83539 -4.28572,-1.42857 -2.88107,-1.23475 -6.64974,-3.80711 -10,-4.28572 -1.88562,-0.26937 -3.84651,0.37356 -5.71428,0 -0.66036,-0.13207 -0.77525,-1.26524 -1.42858,-1.42857 -1.38591,-0.34648 -2.87658,0.23486 -4.28571,0 -1.48536,-0.24756 -2.85714,-0.95238 -4.28571,-1.42857 -2.85715,0 -5.73176,0.31552 -8.57143,0 -1.49664,-0.16629 -2.80036,-1.18101 -4.28572,-1.42857 -1.40913,-0.23486 -2.85714,0 -4.28571,0 -1.42857,0 -2.85714,0 -4.28572,0 -6.66666,0 -13.33333,0 -20,0 -3.80952,0 -7.61904,0 -11.42857,0 -2.85714,0 -5.73635,-0.35439 -8.57143,0 -1.05657,0.13207 -1.81302,1.21975 -2.85714,1.42857 -1.40083,0.28017 -2.88488,-0.28017 -4.28571,0 -1.04412,0.20882 -1.81303,1.21975 -2.85715,1.42857 -1.40082,0.28017 -2.85714,0 -4.28571,0 -0.47619,0 -1.09185,-0.33672 -1.42857,0 -0.33672,0.33672 0.39621,1.16443 0,1.42857 -2.32318,0.7744 -5.04085,1.45581 -7.14286,2.85715 -2.83008,-0.14261 -0.67565,2.10421 -1.42857,2.85714 -9.52381,9.52381 0.47619,-4.28572 -7.14286,7.14286 -0.95238,1.42857 -1.82698,2.91217 -2.85714,4.28571 -2.27731,3.03641 -2.85714,-0.36634 -2.85714,2.85714 0,0.47619 -0.33672,1.09186 0,1.42857 0.67343,0.67344 2.0053,-0.42591 2.85714,0 0.60234,0.30117 0.82623,1.12741 1.42857,1.42858 0.8201,0.41004 5.92684,-0.30401 7.14286,0 1.033,0.25825 1.81303,1.21974 2.85714,1.42857 2.95062,0.59012 8.64174,-0.69671 11.42857,0 0.65333,0.16333 0.7897,1.21561 1.42857,1.42857 1.80702,0.60234 3.90727,-0.60234 5.71429,0 0.63888,0.21296 0.7897,1.21561 1.42857,1.42857 0.90351,0.30117 1.91434,-0.13469 2.85714,0 2.40371,0.34339 4.80818,0.76152 7.14286,1.42857 1.02383,0.29252 1.84699,1.09185 2.85714,1.42857 0.45176,0.15059 0.97682,-0.15058 1.42858,0 1.01015,0.33672 1.82414,1.17032 2.85714,1.42857 0.92394,0.23099 2.00531,-0.42591 2.85714,0 0.42592,0.21296 -0.33672,1.09186 0,1.42858 0.33672,0.33671 0.9666,-0.1155 1.42857,0 1.46089,0.36522 2.82483,1.06335 4.28572,1.42857 0.92394,0.23098 2.0053,-0.42592 2.85714,0 0.60234,0.30117 0.7897,1.21561 1.42857,1.42857 0.90351,0.30117 1.95364,-0.30117 2.85714,0 0.63888,0.21296 0.82624,1.1274 1.42858,1.42857 0.42591,0.21296 1.00265,-0.21296 1.42857,0 0.60234,0.30117 0.82623,1.1274 1.42857,1.42857 0.85183,0.42592 2.00531,-0.42592 2.85714,0 0.60234,0.30117 0.8575,1.07165 1.42857,1.42857 3.25561,2.03476 6.66667,3.80953 10,5.71429 z"
       id="green-enemy"
       inkscape:connector-curvature="0"
       inkscape:label="#path3006" />
    <path
       style="fill:#00ffff;stroke:#ffffff;stroke-width:1px;stroke-linecap:butt;stroke-linejoin:miter;stroke-opacity:0"
       d="m 885.71429,819.50504 c -3.15831,6.31662 -1.3513,4.20843 -4.28572,7.14285 -0.47619,0.47619 -1.05501,0.86824 -1.42857,1.42857 -0.59064,0.88597 -0.78969,2.00531 -1.42857,2.85715 -0.80812,1.07749 -2.04902,1.77964 -2.85714,2.85714 -1.87237,2.4965 -1.41661,4.26178 -2.85714,7.14286 -0.30117,0.60234 -1.05502,0.86824 -1.42858,1.42857 -0.59064,0.88596 -0.83793,1.97118 -1.42857,2.85714 -0.37355,0.56033 -1.1274,0.82623 -1.42857,1.42857 -1.14682,2.29364 -1.84699,4.78584 -2.85714,7.14286 -0.83889,1.9574 -2.06623,3.73701 -2.85714,5.71429 -0.55926,1.39814 -0.86932,2.88757 -1.42858,4.28571 -0.39545,0.98864 -1.17032,1.82414 -1.42857,2.85714 -0.23098,0.92395 0.30117,1.95364 0,2.85715 -0.21296,0.63887 -0.95238,0.95238 -1.42857,1.42857 -0.47619,1.90476 -1.15091,3.77063 -1.42857,5.71428 -0.20203,1.41422 0,2.85715 0,4.28572 0,0.47619 0.15059,0.97681 0,1.42857 -0.33672,1.01015 -1.17032,1.82414 -1.42857,2.85714 -0.23099,0.92395 0,1.90476 0,2.85714 0,2.38096 0.46694,4.80815 0,7.14286 -0.20882,1.04412 -1.25352,1.80684 -1.42857,2.85714 -0.1644,0.9864 0.2466,8.52041 0,10 -0.24756,1.48536 -1.18101,2.80036 -1.42857,4.28572 -0.23486,1.40913 0,2.85714 0,4.28571 0,2.85715 0,5.71429 0,8.57143 0,1.16957 -0.30854,6.21726 0,7.14286 1.85449,5.56347 1.42857,0.13364 1.42857,5.71428 0,0.47619 0.33672,1.09186 0,1.42858 -0.33672,0.33671 -1.09186,0.33671 -1.42857,0 -0.33672,-0.33672 0.21296,-1.00266 0,-1.42858 -0.30117,-0.60233 -0.95238,-0.95238 -1.42858,-1.42857 -0.95238,-0.95238 -2.11003,-1.73648 -2.85714,-2.85714 -0.26414,-0.39621 0.28572,-1.04762 0,-1.42857 -1.21218,-1.61625 -2.85714,-2.85714 -4.28571,-4.28572 -0.47619,-0.47619 -1.1274,-0.82623 -1.42857,-1.42857 -0.21296,-0.42592 0.26414,-1.03235 0,-1.42857 -1.42456,-2.13683 -9.92953,-8.52738 -10,-8.57143 -1.27696,-0.79809 -2.93885,-0.75513 -4.28572,-1.42857 -8.54053,-4.27027 0.41096,-2.76582 -12.85714,-5.71428 -1.39455,-0.30991 -2.87658,0.23485 -4.28572,0 -10.2196,-3.40654 1.56381,0.0193 -8.57142,-1.42858 -1.94365,-0.27766 -3.78903,-1.04352 -5.71429,-1.42857 -2.38095,-0.47619 -4.7619,0.95238 -7.14286,1.42857 -0.46694,0.0934 -0.97681,-0.15058 -1.42857,0 -1.01015,0.33672 -1.84699,1.09186 -2.85714,1.42858 -0.45175,0.15058 -1.09185,-0.33672 -1.42857,0 -0.33672,0.33671 0.21296,1.00265 0,1.42857 -0.76784,1.53566 -1.97379,2.81346 -2.85715,4.28571 -0.54783,0.91305 -0.95238,1.90476 -1.42857,2.85714 -0.47619,0.95238 -1.09185,1.84699 -1.42857,2.85715 -0.30117,0.9035 0,1.90476 0,2.85714 0,1.42857 -0.23485,2.87658 0,4.28571 2.96733,17.80397 -0.10982,-15.27413 2.85714,11.42858 0.21035,1.89311 -0.26937,3.82866 0,5.71428 0.21296,1.49071 1.01489,2.83781 1.42858,4.28572 2.93301,10.26556 -0.0887,1.07365 2.85714,12.85714 1.53283,6.13133 1.56007,3.18588 4.28571,10 0.17686,0.44213 0,0.95238 0,1.42857 0.47619,0.95238 0.83793,1.97118 1.42857,2.85714 0.37356,0.56033 1.02452,0.88983 1.42858,1.42857 8.79402,13.19105 -2.42811,-3.03513 5.71428,7.14286 1.07256,1.3407 1.78459,2.94502 2.85714,4.28572 0.84139,1.05172 1.90477,1.90476 2.85715,2.85714 1.90476,1.90476 3.80952,3.80952 5.71428,5.71428 1.42857,1.42858 2.99235,2.73364 4.28572,4.28574 1.09915,1.319 1.82698,2.9122 2.85714,4.2857 1.88766,2.5169 5.15938,4.6635 7.14286,7.1429 1.07255,1.3407 1.64309,3.0716 2.85714,4.2857 1.21405,1.214 2.94502,1.7846 4.28571,2.8571 2.10346,1.6828 3.61083,4.0315 5.71429,5.7143 3.49094,2.7927 9.1738,5.5058 12.85714,7.1429 1.37606,0.6115 2.93885,0.7551 4.28572,1.4285 3.07133,1.5357 5.50009,4.1786 8.57143,5.7143 2.29363,1.1468 4.84922,1.7103 7.14285,2.8572 0.60234,0.3011 0.95238,0.9523 1.42857,1.4285 1.42858,0.4762 2.87575,0.8999 4.28572,1.4286 2.40109,0.9004 4.94393,1.5378 7.14286,2.8571 0.40833,0.245 -0.33672,1.0919 0,1.4286 0.33671,0.3367 0.95238,0 1.42857,0 1.42857,0 2.89979,0.3465 4.28571,0 3.26158,-0.8154 6.27025,-4.8417 8.57143,-7.1428 1.90476,-1.9048 4.03152,-3.6109 5.71429,-5.7143 1.07255,-1.3407 1.73978,-2.9822 2.85714,-4.2857 1.75307,-2.0453 3.96127,-3.6691 5.71427,-5.7143 1.1174,-1.3036 1.758,-2.9668 2.8572,-4.2857 3.4489,-4.1388 7.8808,-7.3741 11.4285,-11.4286 1.1306,-1.2921 1.9048,-2.8572 2.8572,-4.2857 3.2162,-4.8243 6.2802,-9.82205 10,-14.28575 2.1556,-2.58674 4.7619,-4.76191 7.1428,-7.14286 0.9524,-0.95238 2.049,-1.77964 2.8572,-2.85714 0.6388,-0.85184 0.7897,-2.00531 1.4285,-2.85714 0.8082,-1.0775 1.9048,-1.90477 2.8572,-2.85715 3.3643,-3.36434 3.0111,-2.63754 5.7143,-7.14285 2.0101,-3.35026 1.2217,-3.05439 2.8571,-7.14286 0.3955,-0.98864 1.0919,-1.84699 1.4286,-2.85714 0.1506,-0.45176 0,-0.95238 0,-1.42857 0,-0.95239 -0.1566,-1.91772 0,-2.85715 0.3228,-1.93667 0.8077,-3.85165 1.4286,-5.71428 1.5544,-4.66329 1.8662,-1.19749 2.8571,-7.14286 0.2349,-1.40913 -0.3465,-2.8998 0,-4.28571 0.622,-2.4878 2.0462,-4.71009 2.8571,-7.14286 0.6209,-1.86263 0.8892,-3.82645 1.4286,-5.71429 0.4137,-1.44791 1.0634,-2.82483 1.4286,-4.28571 2.9459,-11.78349 -0.076,-2.59158 2.8571,-12.85714 0.8274,-2.89582 2.2665,-5.61823 2.8572,-8.57143 0.6603,-3.30179 1.0109,-6.65883 1.4285,-10 0.059,-0.47252 -0.1154,-0.9666 0,-1.42857 0.3653,-1.46089 1.1811,-2.80036 1.4286,-4.28572 0.2349,-1.40913 0,-2.85714 0,-4.28571 0,-1.42857 0.2349,-2.87658 0,-4.28572 -0.2475,-1.48536 -1.181,-2.80035 -1.4286,-4.28571 -0.2348,-1.40914 0.2349,-2.87658 0,-4.28572 -0.2475,-1.48535 -0.9523,-2.85714 -1.4285,-4.28571 -0.4762,-1.42857 -0.9524,-2.85714 -1.4286,-4.28571 -0.4762,-1.42858 -0.6538,-2.99447 -1.4286,-4.28572 -0.6929,-1.15493 -2.11,-1.73648 -2.8571,-2.85714 -1.1813,-1.77193 -1.8006,-3.86529 -2.8572,-5.71429 -0.8518,-1.49071 -2.0893,-2.75004 -2.8571,-4.28571 -0.213,-0.42592 0.2641,-1.03236 0,-1.42857 -0.7471,-1.12067 -1.9949,-1.82245 -2.8571,-2.85715 -1.5243,-1.82909 -2.7615,-3.88518 -4.2858,-5.71428 -0.8622,-1.0347 -2.0157,-1.80542 -2.8571,-2.85714 -1.0726,-1.3407 -1.7846,-2.94502 -2.8571,-4.28572 -0.8414,-1.05173 -2.0158,-1.80541 -2.8572,-2.85714 -1.0725,-1.3407 -1.7846,-2.94502 -2.8571,-4.28572 -0.8414,-1.05173 -1.9048,-1.90476 -2.8572,-2.85714 -1.4285,-1.42857 -2.8571,-2.85714 -4.2857,-4.28571 -0.9524,-0.95238 -1.7796,-2.04902 -2.8571,-2.85715 -0.8519,-0.63887 -2.0053,-0.78969 -2.8572,-1.42857 -6.8821,-5.16157 1.8468,-0.72007 -7.1428,-5.71428 -2.7924,-1.55133 -5.8626,-2.5927 -8.5715,-4.28572 -1.1421,-0.71384 -1.7022,-2.16418 -2.8571,-2.85714 -1.2913,-0.77475 -3.0328,-0.59328 -4.2857,-1.42857 -0.3962,-0.26414 0.3367,-1.09186 0,-1.42857 -2.9558,-2.95577 0.1155,4.5168 -2.8572,-1.42857 -0.2129,-0.42592 0.3368,-1.09186 0,-1.42858 -2.156,-2.15604 -4.82776,-3.72995 -7.14281,-5.71428 -2.52772,-2.16662 -4.54353,-5.06339 -7.14286,-7.14286 -2.68139,-2.14511 -5.89004,-3.56917 -8.57143,-5.71428 -1.05173,-0.84139 -1.76115,-2.0743 -2.85714,-2.85715 -2.25945,-1.61389 -4.78827,-2.81409 -7.14286,-4.28571 -1.45595,-0.90997 -2.75005,-2.08931 -4.28571,-2.85714 -1.34687,-0.67344 -2.93885,-0.75514 -4.28572,-1.42858 -1.53567,-0.76783 -2.82976,-1.94717 -4.28571,-2.85714 -2.35459,-1.47162 -4.65935,-3.04396 -7.14286,-4.28571 -1.34687,-0.67344 -2.85714,-0.95238 -4.28571,-1.42857 -2.85715,-0.95239 -5.80325,-1.67078 -8.57143,-2.85715 -1.9574,-0.83888 -3.75689,-2.01825 -5.71429,-2.85714 -2.16159,-0.9264 -8.02291,-2.52763 -10,-2.85714 -0.93942,-0.15657 -1.90476,0 -2.85714,0 -1.42857,0 -2.85714,0 -4.28572,0 -0.95238,0 -1.90476,0 -2.85714,0 -0.95238,0 -1.9332,-0.23099 -2.85714,0 -1.033,0.25825 -1.82414,1.17032 -2.85714,1.42857 -0.92395,0.23098 -1.97288,-0.35371 -2.85715,0 -1.59413,0.63765 -2.75004,2.08931 -4.28571,2.85714 -0.42592,0.21296 -1.09185,-0.33672 -1.42857,0 -0.68246,0.68246 -2.03786,3.67643 -1.42857,4.28572 0.33671,0.33671 1.09185,-0.33672 1.42857,0 0.33672,0.33671 -0.33672,1.09185 0,1.42857 0.33672,0.33671 1.00265,-0.21296 1.42857,0 0.60234,0.30117 0.95238,0.95238 1.42857,1.42857 0.95238,0.95238 1.77965,2.04902 2.85714,2.85714 0.85184,0.63888 1.93265,0.90029 2.85715,1.42857 14.80186,8.45821 1.0553,1.56498 11.42857,5.71429 5.34556,2.13822 0.43491,0.93174 7.14285,4.28571 7.62745,3.81372 5.24655,1.81291 11.42858,4.28572 3.26551,1.3062 3.78888,2.27333 7.14285,4.28571 3.61125,2.16675 7.66029,3.83015 11.42857,5.71429 0.95239,0.47619 2.00531,0.78969 2.85715,1.42857 1.61624,1.21218 2.85714,2.85714 4.28571,4.28571 0.95238,0.95238 1.90476,1.90476 2.85714,2.85715 0.4762,0.47619 1.12741,0.82623 1.42858,1.42857 0.42591,0.85183 -0.67344,2.1837 0,2.85714 0.33671,0.33672 1.09185,-0.33672 1.42857,0 0.67343,0.67343 -0.30117,1.95363 0,2.85714 0.33672,1.01015 1.09185,1.84699 1.42857,2.85715 0.15058,0.45175 -0.15059,0.97681 0,1.42857 0.33672,1.01015 1.09185,1.84699 1.42857,2.85714 0.15059,0.45175 -0.26414,1.03236 0,1.42857 -3.52516,4.32498 3.8858,2.45723 4.28571,2.85714 0.67344,0.67344 -0.42591,2.00531 0,2.85715 0.30117,0.60234 1.12741,0.82623 1.42858,1.42857 0.21296,0.42592 -0.17686,0.98644 0,1.42857 0.79091,1.97727 1.90476,3.80952 2.85714,5.71429 z"
       id="cyan-enemy"
       inkscape:connector-curvature="0"
       inkscape:label="#path3021" />
  </g>
</svg>
