<?xml version="1.0" encoding="UTF-8" standalone="no"?>
<!-- Created with Inkscape (http://www.inkscape.org/) -->

<svg
   xmlns:dc="http://purl.org/dc/elements/1.1/"
   xmlns:cc="http://creativecommons.org/ns#"
   xmlns:rdf="http://www.w3.org/1999/02/22-rdf-syntax-ns#"
   xmlns:svg="http://www.w3.org/2000/svg"
   xmlns="http://www.w3.org/2000/svg"
   xmlns:sodipodi="http://sodipodi.sourceforge.net/DTD/sodipodi-0.dtd"
   xmlns:inkscape="http://www.inkscape.org/namespaces/inkscape"
   width="495.99814"
   height="194.63374"
   id="svg2"
   version="1.1"
   inkscape:version="0.48.5 r10040"
   sodipodi:docname="cuddlepuff.svg">
  <defs
     id="defs4" />
  <sodipodi:namedview
     id="base"
     pagecolor="#ffffff"
     bordercolor="#666666"
     borderopacity="1.0"
     inkscape:pageopacity="0.0"
     inkscape:pageshadow="2"
     inkscape:zoom="0.35"
     inkscape:cx="252.48186"
     inkscape:cy="-285.02665"
     inkscape:document-units="px"
     inkscape:current-layer="layer1"
     showgrid="false"
     inkscape:window-width="1364"
     inkscape:window-height="766"
     inkscape:window-x="1"
     inkscape:window-y="1"
     inkscape:window-maximized="0"
     fit-margin-top="0"
     fit-margin-left="0"
     fit-margin-right="0"
     fit-margin-bottom="0" />
  <metadata
     id="metadata7">
    <rdf:RDF>
      <cc:Work
         rdf:about="">
        <dc:format>image/svg+xml</dc:format>
        <dc:type
           rdf:resource="http://purl.org/dc/dcmitype/StillImage" />
        <dc:title></dc:title>
      </cc:Work>
    </rdf:RDF>
  </metadata>
  <g
     inkscape:label="Layer 1"
     inkscape:groupmode="layer"
     id="layer1"
     transform="translate(-122.51814,-52.701783)">
    <path
       style="fill:#483737;stroke:#ffffff;stroke-width:1px;stroke-linecap:butt;stroke-linejoin:miter;stroke-opacity:0"
       d="m 483.6875,53.214287 c -2.19482,0.13946 -4.71215,0.93787 -6.875,0.0625 -6.53993,0.99556 -10.93471,0.77083 -17.8125,3.40625 -1.76238,0.97039 -3.23633,2.03179 -4.59375,3.125 -3.21972,0.4931 -6.39222,0.87499 -9.1875,0.84375 -8.54976,2.21802 -18.02942,3.46196 -26.59375,4.59375 -9.27034,0.85637 -19.3402,3.23741 -29.0625,5.375 -10.03997,1.65201 -19.08528,4.1079 -29.0625,5.40625 -8.35071,-0.15011 -16.18164,1.70243 -23.9375,1.6875 -7.48813,1.18101 -14.11455,1.37548 -21.34375,4.34375 -8.67274,2.74193 -17.05017,2.55574 -25.4375,5.84375 -14.10624,5.17234 -28.25573,10.333877 -42.34375,15.499993 -4.36517,7.42122 -14.28602,2.89759 -18.1875,7.9375 -4.65595,2.69658 -13.56921,7.17332 -17.90625,10.5625 -2.36359,3.11492 -4.34687,4.7595 -6.3125,6.625 -0.0207,-0.002 -0.0418,0.002 -0.0625,0 -3.21532,-2.61415 -7.61318,-3.54544 -10.59375,-5.3125 -1.61024,-2.99925 -6.33913,-3.24884 -11.625,-2.96875 -4.16491,1.11026 -10.18409,0.63686 -12.21875,3.5625 -3.0865,1.00582 -5.33364,2.64814 -7.3125,4.71875 -3.53444,1.8342 -5.42352,4.65184 -9.9375,5.90625 -3.24749,3.08516 -6.66136,5.52985 -12.6875,5.71875 -2.38945,2.21185 -8.01491,2.56294 -10.5,4.90625 -1.86854,1.75666 -9.99843,6.85486 -5.96875,9.4375 -0.52289,4.16401 4.46557,3.53846 6.625,5.3125 2.86476,1.06533 5.22064,2.81611 6.625,5.3125 4.48975,2.22353 1.28437,6.17937 0.0937,10.6875 -2.74617,3.18595 -1.62906,12.20183 1.90625,14.09375 1.89952,2.46624 5.60128,2.9166 8.625,5.3125 6.79574,3.3762 13.56708,0.92059 20.53125,-0.5625 6.36009,-1.79192 11.82047,-2.50831 16.5625,-4.75 8.35089,0.008 16.8089,-0.0148 25.1875,0 5.70483,2.18923 10.64082,5.66095 14.5625,7.09375 5.12496,2.28223 14.17633,1.61019 20.28125,-1.15625 0.15901,0.22597 0.31169,0.44087 0.46875,0.6875 0.79561,-3.50804 9.72625,5.27418 12.65625,6.5625 5.44053,2.74703 11.20331,3.65766 15.28125,4.375 6.0777,1.76455 9.90779,2.13596 16.1875,1.53125 5.50897,1.2279 10.70521,2.57367 16.3125,1.15625 5.44531,-1.41602 10.61946,0.65864 15.875,-0.65625 7.51682,0.65155 15.05312,-0.43156 22.84375,-2.9375 8.3475,1.51976 15.81114,-2.9228 23.6875,-1.53125 8.26392,-1.57394 16.95577,-4.45638 25.15625,-4.09375 4.14534,-1.49182 8.32364,-3.0709 12.46875,-4.5625 2.47133,0.0662 4.95705,-0.1583 7.46875,-0.5625 0.2666,0.85291 0.52911,1.71985 0.8125,2.5625 -1.45182,8.52484 5.83757,17.72467 8.5,24.28125 2.71875,4.17317 5.09498,8.36755 8.65625,10.75 1.71799,3.61511 4.35831,5.41151 6.90625,7.5625 2.33173,2.76637 6.35536,3.40677 10.5625,4.84375 5.47011,-0.53801 8.56144,1.93338 14.4375,0.65625 3.61575,0.623 7.40864,-2.23886 11.1875,-2.6875 2.32694,-3.09984 8.5548,-5.50188 11.3125,-8.21875 5.75076,-2.32159 8.20846,-2.69027 11.84375,1.46875 4.89293,3.2144 9.91279,3.42782 14.96875,4.21875 7.98671,-1.27656 15.44512,-2.54746 22.6875,-6.46875 4.4516,-3.9499 11.18256,-6.9589 12.8125,-11.5625 2.82021,-1.48556 6.95078,-4.73857 6.3125,-6.53125 -5.44629,0.49455 -8.77539,5.12649 -13.53125,5.0625 -4.82985,-0.29312 -9.64188,-1.51542 -14.46875,-0.65625 -2.40646,-2.28796 -7.77801,-0.45481 -10.59375,-4.75 1.23144,-3.28444 5.31638,-5.48513 6.71875,-7.46875 2.89297,-1.83526 2.03944,-4.20367 -2.4375,-3 -4.11567,-1.47852 -10.41521,2.16413 -9.40625,-5.96875 -1.96051,-5.88006 0.52492,-9.1652 0.1875,-13.4375 -0.94785,-4.39179 7.03554,0.88485 9.90625,0.46875 3.64976,0.75884 9.00644,0.21294 11.4375,5.3125 4.56035,1.78308 4.83742,9.72858 9.78125,11.90625 1.06003,3.90014 5.91951,5.55407 7.1875,9.03125 3.06958,1.66887 6.02952,2.39882 8.90625,3.8125 7.00734,0.22773 11.67322,2.93117 19.1875,-0.0625 6.97906,-3.70858 14.95515,-6.02352 18,-10.25 1.70952,-2.48258 7.5899,-5.17926 8.34375,-8.875 3.9179,-1.04074 5.83989,-8.43151 -2.03125,-3.78125 -1.56266,3.46303 -8.12391,3.6063 -12.3125,5.6875 -3.04756,-1.51265 -8.10212,-1.09466 -11.5,-0.96875 -3.14692,-1.7537 -6.03778,-5.27568 -8.46875,-10.03125 -4.26213,-4.49967 -6.09028,-10.91027 -9.75,-14.15625 0.26211,-2.98075 9.123,2.49905 14.5,-1.59375 1.65458,2.64081 6.71187,-1.45535 9.84375,-1.65625 5.84374,-0.81136 6.69834,-4.16127 11.9375,-5.28125 3.41588,-4.43676 9.62455,-5.75503 11.15625,-9.625 3.39961,-3.3911 6.84704,-6.23684 8.0625,-10.03125 4.00071,-2.26866 1.32304,-9.56042 2.65625,-12.84375 0.89074,-2.50212 -1.92803,-6.88145 -2.5,-10.15625 -0.86707,-4.59207 -3.26632,-8.01304 -5.09375,-11.40625 -0.65129,4.13612 1.60453,8.68743 -2.4375,11.28125 0.55349,4.43543 -3.29783,9.32183 -6.375,10.8125 -2.4783,3.54565 -8.52999,6.50632 -13.40625,8.96875 -4.74253,0.91978 -9.56349,4.61249 -14.15625,2.96875 -5.44746,3.15391 -9.58007,1.02186 -14.03125,0.78125 -3.00178,-1.14634 -5.34232,-3.57673 -8.75,-3.9375 -3.58139,-3.0036 -6.97231,-8.36971 -9.3125,-15.03125 -1.96279,-7.11695 -3.43466,-16.2174 -2.40625,-21.75 -1.37676,-4.5421 -2.94365,-9.087876 -4.3125,-13.687493 1.45722,-6.66585 -4.07664,-14.93347 -8.1875,-18.28125 -2.63873,-3.51367 -5.69355,-5.67574 -9.53125,-8.96875 -2.25847,-5.00652 -8.02981,-4.47051 -11.15625,-8.65625 -1.4694,2.47256 -4.49778,-3.39539 -7.9375,-1.5625 -3.01696,-1.61574 -6.73,-1.89761 -11.46875,-1.03125 -0.65174,-0.44191 -1.39005,-0.6212 -2.1875,-0.65625 -0.29904,-0.0131 -0.5927,-0.0199 -0.90625,0 z m 75.15625,118.624993 c 0.47142,0.28936 0.18719,2.01438 0,0 z M 447,182.65178 c 0.91847,1.39235 1.84326,2.82197 2.75,4.4375 3.18352,3.84262 5.69105,4.50074 9.15625,7.59375 3.26162,1.61714 5.66287,2.45376 8.75,6.21875 3.68831,3.6735 8.26507,1.53803 10.9375,6.28125 3.2022,0.68751 5.5092,6.5386 0.4375,3.4375 -5.57992,2.09969 -11.37312,3.65416 -17.03125,5.5625 -1.48506,-2.55703 -5.04378,-0.20211 -4,-3.21875 -4.50283,-0.14914 -4.92523,-5.67117 -8.9375,-8.875 -1.39686,-4.3509 -4.33633,-6.33754 -5.21875,-11.96875 -0.22492,-1.72812 -0.5441,-3.3406 -0.84375,-4.9375 0.68818,-0.37416 1.32908,-0.79665 1.96875,-1.3125 0.36986,-1.17442 1.13894,-2.22409 2.03125,-3.21875 z m 162.15625,7.3125 c -0.24145,0.0449 -0.55676,0.20541 -0.90625,0.625 1.68886,0.32446 1.63061,-0.75963 0.90625,-0.625 z m -1.875,0.625 c -0.4017,0.0954 -0.57749,0.58865 0.0625,1.78125 2.84384,-0.29237 0.82125,-1.99106 -0.0625,-1.78125 z"
       id="path2998"
       inkscape:connector-curvature="0" />
  </g>
</svg>
