<?xml version="1.0" encoding="UTF-8" standalone="no"?>
<!-- Created with Inkscape (http://www.inkscape.org/) -->

<svg
   xmlns:dc="http://purl.org/dc/elements/1.1/"
   xmlns:cc="http://creativecommons.org/ns#"
   xmlns:rdf="http://www.w3.org/1999/02/22-rdf-syntax-ns#"
   xmlns:svg="http://www.w3.org/2000/svg"
   xmlns="http://www.w3.org/2000/svg"
   xmlns:sodipodi="http://sodipodi.sourceforge.net/DTD/sodipodi-0.dtd"
   xmlns:inkscape="http://www.inkscape.org/namespaces/inkscape"
   width="744.09448819"
   height="1052.3622047"
   id="svg3327"
   version="1.1"
   inkscape:version="0.48.5 r10040"
   sodipodi:docname="New document 23">
  <defs
     id="defs3329" />
  <sodipodi:namedview
     id="base"
     pagecolor="#ffffff"
     bordercolor="#666666"
     borderopacity="1.0"
     inkscape:pageopacity="0.0"
     inkscape:pageshadow="2"
     inkscape:zoom="0.98994949"
     inkscape:cx="517.05875"
     inkscape:cy="774.03128"
     inkscape:document-units="px"
     inkscape:current-layer="layer1"
     showgrid="false"
     inkscape:window-width="1364"
     inkscape:window-height="766"
     inkscape:window-x="1"
     inkscape:window-y="1"
     inkscape:window-maximized="0" />
  <metadata
     id="metadata3332">
    <rdf:RDF>
      <cc:Work
         rdf:about="">
        <dc:format>image/svg+xml</dc:format>
        <dc:type
           rdf:resource="http://purl.org/dc/dcmitype/StillImage" />
        <dc:title></dc:title>
      </cc:Work>
    </rdf:RDF>
  </metadata>
  <g
     inkscape:label="Layer 1"
     inkscape:groupmode="layer"
     id="layer1">
    <path
       style="fill:#483737;stroke:#ffffff;stroke-width:0.6218695px;stroke-linecap:butt;stroke-linejoin:miter;stroke-opacity:0"
       d="M 361.9375 57.1875 C 356.37523 57.242503 351.27721 59.274184 345.75 59.5625 C 340.46751 61.110003 335.46866 61.601769 330.375 63.4375 C 323.46842 65.387112 316.52025 67.698642 310.59375 71.96875 C 304.71526 75.17798 298.72725 78.310305 293.28125 81.78125 C 290.37401 83.236949 288.56575 84.887502 286.125 86.40625 C 290.07016 85.510655 294.64242 83.481806 299.0625 82.65625 C 304.27534 81.808802 309.7412 80.252557 314.25 79.28125 C 317.36819 77.662306 322.857 77.184258 326.8125 75.3125 C 333.12454 74.883591 339.65873 74.150003 346.59375 74.53125 C 353.03891 74.633673 359.18825 76.311882 365.53125 76.59375 C 368.84074 77.986501 372.42285 78.225839 375.59375 79.53125 C 370.80769 81.727125 364.28509 84.100015 359.625 86.65625 C 354.67835 88.76046 348.08634 90.564702 343.4375 92.71875 C 338.59851 95.293185 333.67242 96.913603 329.3125 100.8125 C 335.47866 98.738043 344.26895 95.745735 350.90625 94.75 C 362.61707 92.643299 373.42362 91.572839 384.75 89.65625 C 393.14098 90.105238 402.14093 88.896428 410.03125 90.46875 C 409.0275 90.793586 408.00345 91.731055 409.71875 91.71875 C 408.49378 92.747378 406.84963 92.93308 405.59375 93.6875 C 404.8159 94.392681 403.7771 95.67844 402.03125 95.75 C 402.94367 97.612588 399.83092 95.934427 399.96875 97.3125 C 398.66567 98.180768 396.45251 99.925783 394.28125 99.78125 C 393.88374 101.65991 391.45026 100.47207 389.90625 100.8125 C 390.50078 103.26574 386.35981 100.37276 386.84375 102.6875 C 384.72862 102.33467 383.28989 103.75571 381.25 103.875 C 379.75622 103.01779 379.93356 104.85721 378.96875 105.03125 C 379.3974 105.16486 379.76222 105.41486 379.875 105.78125 C 384.80013 105.98408 389.81494 105.77382 394.78125 105.875 C 397.15374 105.95995 399.04581 104.08468 401.6875 104.875 C 402.72932 103.14052 405.34353 104.52726 406.46875 103.25 C 409.11536 102.79232 411.27966 101.5191 413.40625 100.375 C 415.37766 99.079364 418.97844 98.850736 419.15625 95.84375 C 421.62536 96.349336 418.93283 93.474319 420.9375 93.71875 C 421.26916 92.867618 421.31235 91.806741 421.28125 90.6875 L 432.34375 90.6875 C 439.36879 93.176666 446.95587 93.578513 451.53125 98.78125 C 453.02179 101.70754 452.83124 104.86652 452.5 108.03125 C 447.13633 112.96058 440.35076 117.11723 436.09375 122.9375 C 436.73117 126.64578 445.17068 121.63439 453.28125 119.125 C 453.61915 119.76988 454.03357 120.38781 454.5625 121 C 458.56641 123.61639 460.44621 130.03659 467.6875 130.09375 C 474.64689 134.47975 484.286 134.98992 492.9375 137.15625 C 498.05934 140.23449 505.01001 140.98507 510.25 144.4375 C 512.14998 144.94142 514.60473 145.93565 517.09375 147.03125 C 516.94482 152.34357 515.46348 158.02754 513.6875 163 C 517.82596 159.35364 523.42376 155.75318 529.21875 153.53125 C 532.28802 155.52974 535.35036 157.52453 538.40625 159.40625 C 541.21532 162.81205 544.87966 165.30091 546.5 172.625 C 548.73866 178.06003 545.48463 183.67173 546.5 190.875 C 546.49785 190.9277 546.50245 190.97868 546.5 191.03125 C 543.70227 192.97042 540.66908 194.67132 537.6875 196.03125 C 523.08343 200.28069 534.20659 202.25691 541.75 206.3125 C 541.64795 206.50164 541.54111 206.687 541.4375 206.875 C 539.19923 211.20271 536.87833 218.25575 533.34375 221 C 531.06413 225.68065 529.11785 231.67931 524.25 234.15625 C 524.14361 234.46199 523.98737 234.76262 523.8125 235.0625 C 523.03548 234.89409 522.22141 234.66301 521.375 234.34375 C 511.04695 222.43141 511.94143 233.42645 513.21875 242.9375 C 507.70089 245.61584 502.38438 248.94256 498 251.3125 C 494.99491 252.38222 491.41932 253.26005 487.65625 253.9375 C 484.6871 252.03906 481.73178 250.16464 478.75 248.4375 C 478.031 246.31343 477.81889 243.70521 478.28125 240.53125 C 478.96199 226.65794 471.95654 234.61432 467.375 242.78125 C 461.59863 240.3759 451.85101 237.78652 444.65625 236.5 C 441.10973 235.56833 437.51085 235.04088 433.875 234.8125 C 433.84163 233.44838 433.98934 231.92795 434.40625 230.25 C 435.94447 219.50327 430.81202 221.14267 427 229.125 C 426.19847 231.1165 425.3304 233.03633 424.40625 234.875 C 418.96241 235.23638 413.52804 236.0941 408.25 237.21875 C 396.80237 240.58792 385.60488 245.56816 376.125 253.75 C 371.6965 257.43116 367.40505 259.8982 363.21875 262.65625 C 360.48855 261.36231 357.92161 259.12523 355.5625 255.5625 C 348.91341 256.23398 350.87273 263.84137 351.96875 271.71875 C 343.7436 277.89848 338.84809 285.76762 331.8125 293.625 C 331.11482 294.92923 330.33946 296.23733 329.53125 297.53125 C 326.1941 296.68306 322.77318 294.44713 319.3125 290.8125 C 311.21415 292.89768 315.00559 304.90673 317.28125 314.4375 C 317.13084 314.6391 316.96015 314.86294 316.8125 315.0625 C 311.50973 318.94993 307.78144 320.35443 305.25 325.28125 C 296.08524 326.25069 286.89772 323.20348 279.6875 317.71875 C 282.14911 310.99588 289.13497 303.51957 293.0625 298.75 C 285.94278 294.66139 276.426 299.14861 267.5625 301.65625 C 265.50674 296.03483 265.03231 289.81575 266.78125 283.5 C 267.53519 280.59696 268.31414 277.71213 269.125 274.875 C 271.2448 273.58442 273.54909 272.64063 276 272.125 C 291.97005 269.34395 285.13975 260.6466 274.59375 257.375 C 278.56501 245.56698 282.34548 236.15936 284.46875 232.3125 C 284.33325 230.5082 284.14267 228.81614 283.875 227.21875 C 285.93678 225.62266 287.89393 224.21873 289.5 223.0625 C 306.41924 213.8789 287.10898 212.93568 278 212.09375 C 273.42065 205.49635 267.0994 201.62848 261.0625 197.34375 C 260.32785 197.01003 259.53585 196.69852 258.71875 196.40625 C 259.21002 195.06969 259.85624 193.68329 260.6875 192.25 C 263.63958 174.74342 248.3024 185.92368 238.40625 190.90625 C 229.94588 187.97373 224.57962 183.20228 231.34375 171.71875 C 231.50681 171.03974 231.65117 170.3839 231.75 169.75 C 235.22548 169.6221 237.82715 166.66407 241.65625 167.5625 C 242.93964 165.45605 247.4189 167.69751 247.5 165.4375 C 244.52498 165.4272 241.39853 165.46075 238.375 165.46875 C 237.8001 163.70694 234.97301 164.69867 233.375 164.4375 C 232.90737 164.34723 232.34035 164.36965 231.78125 164.40625 C 231.22234 160.87236 229.41967 158.24618 226.9375 156.125 C 228.15109 155.68328 229.48706 155.28138 230.8125 154.84375 C 233.53105 152.92495 237.32128 153.00999 240.4375 151.625 C 242.09399 151.01298 244.85694 150.49325 246.96875 149.1875 C 249.81121 148.9036 251.2473 147.69328 254.125 147.28125 C 258.8854 145.88572 250.83066 147.25098 251.53125 145.25 C 247.73157 145.2207 243.78444 145.31215 239.9375 145.1875 C 238.3054 146.76928 235.89062 146.14113 233.6875 146.25 C 229.90079 145.89095 226.58638 148.27668 222.6875 147.1875 C 221.87877 149.84363 216.90129 146.80533 214.65625 149.0625 C 214.49038 149.10167 214.32373 149.12653 214.15625 149.15625 C 208.74012 146.74839 203.77175 144.29881 202.0625 139.9375 C 202.86223 139.61552 203.60269 139.35205 204.0625 139.1875 C 206.8053 137.16993 210.57464 137.3847 213.65625 135.65625 C 216.68966 135.13559 219.46946 133.26967 222.53125 132.9375 C 224.43724 131.27292 227.44011 131.93313 229.3125 130.09375 C 232.81194 130.30885 235.63861 128.97679 238.40625 128.0625 C 240.67279 126.51995 243.89459 126.21576 245.34375 125.15625 C 244.04033 124.58049 241.30375 125.02365 240.59375 126.15625 C 236.05747 125.78149 232.27231 127.77903 227.90625 128.09375 C 224.5581 128.46378 221.49425 128.93417 218.1875 130.09375 C 215.0215 129.34123 213.10435 131.52434 210.0625 131.09375 C 208.04408 131.41683 205.45067 130.28103 204.0625 132.125 C 203.43844 132.13845 202.81285 132.12444 202.1875 132.125 C 202.45255 131.28333 202.76652 130.40446 203.1875 129.46875 C 202.56395 126.69513 200.68893 124.75874 198.25 123.40625 C 198.34814 123.27856 198.43194 123.16261 198.46875 123 C 201.35908 122.33271 201.77762 119.66981 205.0625 118.96875 C 207.82116 117.90782 205.49567 118.22114 205.8125 117.65625 C 209.07972 116.22456 210.91064 116.00268 213.15625 113.9375 C 214.9617 113.90255 213.38229 114.02064 215.6875 112.96875 C 216.1052 111.51777 217.97547 112.41299 219.1875 110.90625 C 221.63581 112.0417 220.62892 108.99573 222.78125 110.03125 C 222.7786 108.30017 225.39401 109.67858 225.1875 108.09375 C 228.27715 107.61542 231.35526 105.81296 234.40625 104.90625 C 235.59654 103.99255 236.97278 103.71103 238.90625 102.8125 C 240.22223 101.34678 242.23605 102.5571 242.4375 100.8125 C 244.85087 101.83138 243.89444 98.988432 246.03125 99.9375 C 246.33542 98.651337 247.3086 98.94459 248.40625 98.5625 C 245.63647 98.325772 245.48503 100.25738 242.4375 99.78125 C 239.12347 101.69763 235.2407 102.38757 231.3125 102.8125 C 228.25491 104.49076 224.49144 104.02057 221.75 105.9375 C 218.06257 106.79202 214.01691 107.08005 210.625 108.9375 C 206.88773 109.05423 203.83123 110.62955 200.53125 112 C 197.10724 112.54087 194.10632 114.71386 190.90625 115.9375 C 187.55447 116.75963 184.60173 118.56632 181.3125 119.5 C 180.45796 119.86121 179.61433 120.27772 178.78125 120.71875 C 163.02405 123.36094 148.45604 131.65233 139.875 145.375 C 129.95488 157.63867 132.03264 144.45618 131 145.09375 C 122.05763 150.30704 100.67811 157.706 115.375 140.78125 C 116.1182 137.76671 80.246607 164.34327 94.90625 140.71875 C 94.2048 136.67896 64.427332 173.97828 69.5625 153.96875 C 65.95152 156.12 45.508826 172.84038 34.96875 179.0625 C 19.595746 190.73962 14.343358 210.78133 -2.03125 220.90625 C 12.657963 220.82995 32.933871 197.16515 44.4375 209.96875 C 59.784997 203.64189 76.221203 195.64392 93.75 195.59375 C 115.58048 188.7796 132.33864 218.74661 109.65625 229.9375 C 95.001234 244.15811 75.40306 251.34195 59.90625 264.1875 C 91.43345 262.34173 124.09423 261.35024 153.21875 247.5 C 167.37003 238.71892 197.5653 245.42592 196.0625 222.0625 C 189.23181 214.71045 182.51953 213.38809 197.84375 212.75 C 221.5187 208.35055 250.76391 234.11483 224.5625 254.21875 C 202.58901 278.09119 213.03896 315.60608 233.03125 337.15625 C 238.97586 344.78615 246.24459 350.16375 254.28125 354 C 250.75514 354.24751 246.99479 355.04387 244.3125 354.78125 C 240.41406 355.05005 235.98082 355.55334 232.875 357.96875 C 228.07186 360.99362 226.1974 363.48227 225.875 365.5625 C 223.96765 367.6087 222.49423 369.70458 219.96875 371.25 C 217.37317 373.85013 214.32718 375.75222 211.34375 378.0625 C 208.17005 380.09982 206.09701 383.84108 202.8125 385.34375 C 199.01356 390.27091 193.71207 387.33002 188.96875 386.5625 C 184.41025 385.38473 180.13497 386.33277 175.28125 386.40625 C 170.61527 386.76531 165.71358 387.11396 161.375 387.53125 C 157.09333 388.18532 166.06254 389.8045 167.4375 389.65625 C 171.63932 391.59134 177.25115 391.92292 180.71875 394.5625 C 183.7845 393.71694 185.37514 396.76057 181.4375 397.90625 C 177.62806 401.73262 172.92363 405.39676 170.78125 410.28125 C 172.3895 409.97801 178.89047 407.67699 182.40625 406.53125 C 186.257 405.14943 189.74456 403.9247 193.5 403.40625 C 194.704 403.29596 195.86294 403.41225 197 403.71875 C 199.03507 406.55434 200.59445 409.63973 202.28125 412.6875 C 203.85854 415.54657 207.19882 416.89748 209 419.46875 C 209.23485 418.107 209.51392 416.79025 210.65625 416.78125 C 211.807 413.16287 212.9698 409.42961 214.15625 405.78125 C 214.43634 403.88409 216.60225 404.46962 217.46875 403.28125 C 218.78479 402.77102 220.17027 401.00689 221.46875 400.875 C 221.95989 399.51457 223.26396 399.47803 223.9375 398.21875 C 224.78843 398.35341 225.6892 396.21077 225.6875 397.96875 C 225.731 397.93065 225.79659 397.9094 225.84375 397.875 C 227.74788 396.19479 229.69282 394.56923 231.46875 392.96875 C 234.46403 389.18747 239.6317 387.42532 243.03125 383.625 C 244.92783 382.4672 247.30466 380.58078 248.5 378.4375 C 250.47548 379.23796 252.72066 379.44234 254.9375 378 C 260.85096 376.1338 272.23358 374.92509 278.09375 373 C 282.7731 372.82133 285.9966 372.60963 291.125 372.6875 C 294.66384 372.84265 288.6235 376.5971 292.46875 377.15625 C 294.59785 376.56504 296.45977 376.50486 298.28125 376.34375 C 297.22995 376.89549 296.1686 377.43209 295.09375 377.9375 C 293.0986 378.51344 293.60555 378.46243 290.15625 379.8125 C 288.95251 380.17612 287.60699 381.84166 286.46875 382.9375 C 285.38293 384.13077 285.1956 386.49138 285.46875 389 C 283.48907 392.72483 280.18714 398.56957 277.40625 402.96875 C 273.74981 409.64732 268.74535 415.3428 262.84375 420.03125 C 257.17323 423.98334 249.26467 423.56624 242.65625 425.875 C 236.94859 428.04602 230.95081 428.82906 225.40625 431.53125 C 221.72182 431.97876 214.00662 435.7071 222.03125 436.84375 C 225.96077 437.0801 234.23248 438.46301 227.6875 442.09375 C 224.29616 446.70621 215.97647 452.09777 216.875 457.28125 C 224.25258 456.58903 231.31399 454.57283 238.34375 452.25 C 246.30943 450.15346 255.25798 447.1353 261 455.21875 C 267.63583 457.54998 273.89922 460.78381 280.6875 462.6875 C 288.21451 462.00876 279.57088 452.09753 280.90625 447 C 278.83854 440.53317 284.07781 436.22757 286.3125 431.1875 C 287.74471 429.21109 288.8075 426.92001 291.09375 425.0625 C 291.18275 418.97106 297.92826 415.69139 302.0625 411.78125 C 308.2693 408.02181 309.90315 399.81725 317.71875 399.78125 C 324.27019 397.56578 330.61545 395.46143 337.0625 393.3125 C 343.11074 393.224 348.1481 389.64485 353.4375 386.90625 C 361.46948 391.78858 371.4869 393.30892 379.65625 395.78125 C 392.19636 399.97658 405.22334 401.35315 418.75 400.78125 C 427.7463 401.24345 436.56384 400.49278 445.125 398.78125 C 445.128 398.78525 445.15365 398.77725 445.15625 398.78125 C 445.41888 399.21149 445.59794 399.68409 445.4375 400.375 C 447.38033 400.91116 446.76299 404.77728 448.09375 405.875 C 448.55989 407.50181 450.49095 410.15823 450.53125 412.46875 C 452.80257 413.48658 450.37442 417.81101 452.40625 417.9375 C 452.52215 419.96934 452.81169 421.35307 454.15625 422.03125 C 457.03777 425.01259 451.71774 425.38348 451.1875 427.25 C 447.78969 427.38591 446.41211 428.53776 444.09375 430.6875 C 441.99534 430.98455 442.3175 432.83795 440.75 433.0625 C 440.22731 433.86533 439.84072 434.85759 438.875 435.15625 C 443.22845 435.15325 447.79731 435.16125 452.21875 435.15625 C 454.6826 434.80519 458.14172 436.19469 459.75 434.1875 C 462.84615 433.635 465.10622 434.62817 466.8125 435.65625 C 469.03511 438.18017 470.79083 440.01605 473.5625 442.8125 C 474.54214 445.382 476.50477 447.38736 478.90625 447.28125 C 482.28744 446.72316 477.82991 445.55198 480.6875 445.34375 C 480.48092 442.71576 482.04726 440.39436 481.875 437.6875 C 483.38926 437.5949 482.1994 435.05474 483.71875 435.21875 C 483.79635 433.83163 484.19472 433.19718 484.96875 432.625 C 485.78001 431.65283 485.64184 431.121 487.40625 431.125 C 491.35732 430.26957 494.25529 432.126 497.875 432.125 C 499.77513 432.37125 502.09208 431.5776 503.65625 432.625 C 506.88158 433.03525 509.73538 434.43549 513.25 434.15625 C 516.27775 433.63082 511.67814 433.46264 512.3125 432.34375 C 510.60592 432.29525 509.95784 431.50392 509.1875 430.625 C 508.00429 429.6266 506.1003 428.74002 505.09375 427.875 C 504.26234 426.42247 500.44369 423.75217 499.09375 422.53125 C 497.72421 422.34905 498.86598 419.78035 497.09375 420 C 496.1864 418.8366 495.94107 416.16513 494.5625 414.96875 C 494.08259 413.36536 492.1409 410.67717 492.125 408.375 C 490.11905 404.68175 490.30286 400.21659 489 396.28125 C 487.2564 393.74967 488.9582 389.85665 487.375 387.25 C 488.23351 387.49932 489.12121 387.70991 490 387.90625 C 497.14878 391.38612 503.39728 396.7578 509.125 402.84375 C 513.90487 409.51346 521.44434 412.87545 524.78125 421.03125 C 528.21485 429.74999 528.22717 438.06776 520.03125 443.84375 C 515.91502 446.41367 513.05783 454.5089 520.96875 449.6875 C 527.675 447.10236 536.38652 443.14567 539.1875 451.09375 C 542.77422 454.54349 546.3175 469.69594 550.9375 461.34375 C 554.47868 455.91566 556.728 442.65452 565.6875 448.34375 C 571.90553 446.00052 583.24617 453.03484 585.90625 447.09375 C 581.2047 439.5764 567.83304 440.85792 569.34375 429.46875 C 568.23911 420.75799 564.43051 412.01561 559.125 405.78125 C 555.63058 397.90446 552.23092 389.88961 548.625 382.09375 C 546.3098 376.32751 542.74745 367.27368 540.4375 364.21875 C 536.61125 357.25582 531.96871 351.28659 527.46875 344.875 C 528.99621 341.82983 530.70401 338.67548 532.09375 335.40625 C 535.42467 334.03773 538.27414 331.52668 540.4375 330.09375 C 545.63034 326.47799 550.30128 323.77776 556.59375 320 C 562.90515 315.55771 564.73776 313.85164 571.75 306.875 C 574.82893 302.50135 578.73502 298.83559 582.28125 293.84375 C 583.65317 291.61623 588.41295 285.4895 590.9375 280.625 C 594.03034 274.32652 596.41609 266.52305 599.03125 261.40625 C 600.48465 256.07557 603.82964 250.33522 605.0625 243.125 C 605.70217 237.55114 608.6697 231.04932 608.09375 224.03125 C 608.08875 211.90969 608.10075 199.80612 608.09375 187.6875 C 606.28697 179.20669 603.22343 175.44534 600.03125 167.46875 C 595.76161 163.0741 592.82503 155.01597 588.90625 151.3125 C 587.07109 145.20534 582.0696 142.38232 579.8125 138.1875 C 577.76366 133.41789 572.22922 131.70777 567.6875 129.09375 C 560.34267 129.10555 553.82629 126.50132 545.65625 127.0625 C 537.8495 125.53406 529.57997 123.15165 524.34375 121.3125 C 518.47963 118.11037 510.95229 116.83628 508.09375 113.9375 C 502.73624 110.89512 497.83581 106.25061 497 100.15625 C 495.82161 92.475623 500.70562 90.392019 500.03125 82.625 C 501.74152 77.11322 493.35399 68.115014 485.875 64.4375 C 480.61332 60.118637 471.73835 59.166311 463.75 59.375 C 462.82729 59.332375 461.93501 59.290005 461.03125 59.28125 C 460.12749 59.272495 459.21225 59.297355 458.3125 59.3125 C 452.91397 59.40336 447.67271 59.941313 442.4375 60.40625 C 430.57309 62.103319 418.91177 64.590232 407.09375 66.46875 C 402.43716 68.203792 397.71147 69.930927 392.9375 71.75 C 391.9895 70.190843 390.95636 68.503179 390.6875 67.875 C 387.82048 62.742639 383.14393 61.114401 378.75 58.96875 C 373.52709 58.091332 368.26554 58.166942 363.0625 57.21875 C 362.68723 57.203832 362.30832 57.183833 361.9375 57.1875 z M 438.875 435.15625 C 438.41621 435.1566 437.92165 435.15558 437.46875 435.15625 C 438.0407 435.28955 438.50975 435.26921 438.875 435.15625 z M 248.40625 98.5625 C 248.46318 98.567366 248.5033 98.555733 248.5625 98.5625 C 248.5575 98.5396 248.56587 98.521955 248.5625 98.5 C 248.509 98.521889 248.45927 98.544043 248.40625 98.5625 z M 248.5625 98.5 C 248.70507 98.441663 248.85571 98.370612 249 98.28125 C 252.19969 97.76083 248.31996 96.921713 248.5625 98.5 z M 392.28125 71.90625 C 392.32198 71.871087 392.38586 71.897505 392.46875 71.9375 C 392.38584 71.969164 392.30169 71.999534 392.21875 72.03125 C 392.22832 71.982092 392.25485 71.92904 392.28125 71.90625 z M 378.09375 104.84375 C 377.87524 104.86155 377.79281 104.86729 377.65625 104.875 C 377.83428 104.87768 378.02543 104.87939 378.25 104.90625 C 378.19625 104.88372 378.15187 104.87272 378.09375 104.84375 z M 378.25 104.90625 C 378.51771 105.01843 378.72835 105.05044 378.90625 105.03125 C 378.69007 104.9686 378.46925 104.93248 378.25 104.90625 z M 377.1875 104.875 C 377.10578 104.88591 377.26999 104.8918 377.59375 104.875 C 377.4057 104.87391 377.24649 104.86712 377.1875 104.875 z M 96.0625 138.25 L 96 138.375 L 96.0625 138.25 z "
       id="path3466" />
    <path
       style="fill:#483737;fill-opacity:1;stroke:#ffffff;stroke-width:0.88391572px;stroke-linecap:butt;stroke-linejoin:miter;stroke-opacity:0"
       d="m 373.6639,104.95211 c -0.24662,0.37642 -3.86215,0.20525 -3.60106,1.39841 -1.71982,0.25902 -3.7806,0.42199 -5.31975,1.31451 -1.61496,1.16713 -3.91394,0.72776 -5.67439,1.59419 -3.43836,0.86887 -6.36324,2.39548 -10.01204,3.13244 -3.8657,0.61205 -6.8065,2.66593 -10.7759,2.65698 -0.74533,1.32956 -2.96145,1.20801 -4.47405,2.51715 -2.91877,0.75583 -5.67535,1.93135 -8.23878,3.49603 -2.176,-0.92597 -1.19573,1.77037 -3.11001,0.92295 0.0294,1.6223 -2.40634,0.30204 -2.07334,2.01371 -2.14137,-0.82301 -1.18508,1.69363 -3.08272,0.92296 0.0294,1.62229 -2.43361,0.30203 -2.10062,2.01371 -1.83378,-0.67981 -1.31659,1.0031 -2.40071,0.95092 0.30876,1.56681 -1.80665,0.40351 -1.90965,1.48232 -0.9378,0.82361 -2.501,1.87978 -3.43738,2.40527 -1.50251,1.41627 -2.84464,2.18339 -4.28308,3.35619 -0.76947,0.8474 -2.57467,1.73142 -3.21913,2.32136 0.30875,1.56683 -1.80666,0.43145 -1.90965,1.51029 -0.63882,0.97735 -1.85236,1.97809 -3.49194,2.60105 0.11024,1.92248 -4.48231,1.49074 -4.20123,3.6079 -1.83585,0.43376 -3.06015,1.47335 -3.38282,2.65698 -1.82032,-0.0893 -1.89518,0.86107 -2.50983,2.65699 -0.72603,-2.51811 -1.22813,1.88035 -2.64623,2.26543 -1.5355,0.005 -1.04076,1.92971 -2.56439,1.9298 0.21636,1.51371 -2.14806,1.42859 -1.44588,2.8248 1.16835,1.69943 3.20093,-0.37468 5.53799,-0.22375 0.0593,-1.43361 2.42524,-0.29869 2.1279,-1.95778 1.13661,0.9752 4.07305,-2.62283 3.30097,-0.78311 1.42529,-1.54392 4.3693,-0.86958 6.30186,-2.04168 1.99395,-0.0491 4.73985,-1.68824 7.28396,-1.42638 0.57129,-1.86597 3.62947,-0.14774 4.91054,-2.09762 1.4032,-0.0635 2.81968,-0.11151 4.22851,-0.16781 -0.53278,0.54429 -1.07296,1.08632 -1.555,1.6781 0.11277,-1.12739 -1.55888,-0.89535 -1.58228,2.23746 l -1.30948,0.86701 -1.14579,1.11873 c -5.32227,6.56907 -10.13827,13.0822 -16.99591,18.29124 -6.88671,8.02117 -15.80666,14.67527 -20.05136,24.64003 4.13255,-2.51251 13.22398,-5.8079 17.70521,-9.8728 7.69905,-7.5906 16.23616,-13.32616 26.76242,-16.69704 10.88181,-3.15213 20.85183,2.06089 28.83577,8.97781 9.87576,5.45606 11.71346,12.09983 10.23028,23.63317 1.43881,7.98897 -10.67818,24.21606 3.24641,22.03898 9.53292,-5.7985 14.46619,4.58134 16.15021,12.64165 1.74201,10.08014 -0.72531,19.46549 -2.59167,29.17088 4.33416,-3.27594 8.58946,-9.27027 13.91319,-12.30603 5.82728,-5.9603 15.13409,-8.79607 19.39661,-14.93504 -1.01262,-9.42887 -3.33437,-22.44026 -15.35906,-19.15825 -8.17817,-5.79434 0.0739,-20.05924 6.57466,-24.80784 8.25571,-6.5866 19.22396,-7.3275 29.3541,-7.49549 11.86952,-0.62212 25.21736,6.67234 20.62425,20.52869 7.24761,-2.02811 17.82214,-13.22389 28.7812,-13.00523 8.88872,-0.0647 18.61465,1.32563 24.98918,8.13876 5.32054,5.6048 6.99164,-0.85674 3.8193,-5.23007 -1.94211,-10.25101 -5.60727,-20.27551 -11.94897,-28.21996 -9.75496,-7.76595 3.45681,-5.67398 9.41186,-4.7546 12.12614,1.69288 0.37045,-5.51275 -3.00088,-9.45327 -7.97167,-6.38934 -16.44215,-12.91402 -26.35321,-15.74613 -11.82192,-5.06912 -24.71436,-7.57521 -37.45649,-8.33453 -6.26756,-1.9306 -24.96807,7.36075 -15.98652,-4.69867 1.27316,-4.06477 18.24474,-7.6518 8.23879,-7.048 -10.91044,-1.86918 -21.93814,-2.27362 -32.87332,-0.22374 -9.14081,-0.37473 -17.73206,3.23294 -26.7897,3.85961 -2.13014,0.47276 -4.24072,1.10139 -6.30186,1.81794 0.14848,-0.6777 0.3146,-1.29654 0.60018,-1.78997 0.10321,-2.7885 1.71392,-5.14213 2.45527,-7.94298 0.60603,2.49223 0.71733,-2.19937 1.60956,-3.32822 2.16102,-2.17966 4.03612,-5.02583 6.73835,-5.9013 0.37741,-1.41215 2.90596,-1.6135 4.03755,-2.54511 z"
       id="path3755"
       inkscape:connector-curvature="0" />
  </g>
</svg>
