<?xml version="1.0" encoding="UTF-8" standalone="no"?>
<!-- Created with Inkscape (http://www.inkscape.org/) -->

<svg
   xmlns:dc="http://purl.org/dc/elements/1.1/"
   xmlns:cc="http://creativecommons.org/ns#"
   xmlns:rdf="http://www.w3.org/1999/02/22-rdf-syntax-ns#"
   xmlns:svg="http://www.w3.org/2000/svg"
   xmlns="http://www.w3.org/2000/svg"
   xmlns:sodipodi="http://sodipodi.sourceforge.net/DTD/sodipodi-0.dtd"
   xmlns:inkscape="http://www.inkscape.org/namespaces/inkscape"
   width="480.77115"
   height="634.6178"
   id="svg3800"
   version="1.1"
   inkscape:version="0.48.5 r10040"
   sodipodi:docname="kittenclaw.svg">
  <defs
     id="defs3802" />
  <sodipodi:namedview
     id="base"
     pagecolor="#ffffff"
     bordercolor="#666666"
     borderopacity="1.0"
     inkscape:pageopacity="0.0"
     inkscape:pageshadow="2"
     inkscape:zoom="0.7"
     inkscape:cx="385.97519"
     inkscape:cy="238.62616"
     inkscape:document-units="px"
     inkscape:current-layer="layer1"
     showgrid="false"
     inkscape:window-width="1364"
     inkscape:window-height="766"
     inkscape:window-x="1"
     inkscape:window-y="1"
     inkscape:window-maximized="0"
     fit-margin-top="0"
     fit-margin-left="0"
     fit-margin-right="0"
     fit-margin-bottom="0" />
  <metadata
     id="metadata3805">
    <rdf:RDF>
      <cc:Work
         rdf:about="">
        <dc:format>image/svg+xml</dc:format>
        <dc:type
           rdf:resource="http://purl.org/dc/dcmitype/StillImage" />
        <dc:title />
      </cc:Work>
    </rdf:RDF>
  </metadata>
  <g
     inkscape:label="Layer 1"
     inkscape:groupmode="layer"
     id="layer1"
     transform="translate(-149.02481,-110.65625)">
    <path
       style="fill:#483737;fill-opacity:1;stroke:#000000;stroke-width:1px;stroke-linecap:butt;stroke-linejoin:miter;stroke-opacity:0"
       d="m 157.65625,111.15625 c -23.11139,21.54027 9.35645,47.38272 19.4375,67.09375 13.7211,28.13474 -7.1676,63.55635 16.25,88.5 14.93696,20.55016 54.67826,15.41001 53.78125,48.28125 1.35852,44.58965 -40.54415,74.37985 -45.15625,117.65625 -1.78454,5.94834 -3.18126,12.05972 -4.125,18.25 -0.26738,-0.0842 -0.51915,-0.16836 -0.6875,0 -0.29205,0.29205 0.28321,3.71483 0,4.28125 -0.30117,0.60233 -1.13633,0.83516 -1.4375,1.4375 -0.18468,0.36935 0,7.54992 0,8.5625 0,0.47619 0.33671,1.10078 0,1.4375 -0.33672,0.33671 -1.10078,-0.33672 -1.4375,0 -0.0575,0.0575 0,5.19413 0,5.71875 0,0.99363 -0.25831,6.60838 0,7.125 0.30117,0.60234 1.13633,0.83516 1.4375,1.4375 0.18781,0.37563 0,4.97172 0,5.71875 l 0,15.71875 0,14.28125 0,1.40625 c 0,0.47619 -0.33672,1.10078 0,1.4375 0.33671,0.33672 1.10078,-0.33672 1.4375,0 0.33671,0.33672 0,0.96131 0,1.4375 l 0,8.5625 c 0,0.47619 -0.33672,1.10078 0,1.4375 0.33671,0.33672 1.06953,-0.33672 1.40625,0 0.33672,0.33672 0,0.96131 0,1.4375 0,0.99363 -0.25831,6.60838 0,7.125 0.11756,0.23511 0.31615,0.42894 0.53125,0.59375 -1.23147,8.97659 0.25744,18.10103 0.90625,27.125 0.66029,9.98561 2.80117,19.94629 3.28125,30.09375 1.65502,11.04019 3.97573,22.10644 5.3125,33.09375 -0.82407,11.56559 2.72666,23.99018 -4.46875,33.71875 -8.09639,10.60916 -15.45224,22.13673 -25.90625,30.75 -5.00875,9.43469 -18.01827,19.34796 -13.5625,30.71875 11.10499,2.70745 20.42738,11.25912 32.5,9.625 11.31447,-8.14877 24.24055,10.4666 35.6875,-0.96875 6.42736,-8.42476 22.77046,-8.49028 22.5625,-20.90625 3.15944,-6.50772 1.77532,-12.63463 0.0625,-18.84375 12.9244,-5.133 24.42291,-13.47003 36.6875,-20 1.14163,-0.4537 2.29226,-0.89473 3.4375,-1.34375 -8.41765,17.41266 -15.20276,35.66108 -12.75,50.625 3.09263,11.94169 16.72673,14.05042 31.4375,14.28125 7.93313,-3.54001 20.78151,0.47987 28.09375,-2.28125 6.3032,8.90887 18.58459,12.11111 29,5.40625 11.46477,-4.89139 23.46761,-11.99503 31.625,-19.5625 9.94577,-6.29424 13.21115,-10.67998 22.40625,-18 12.53072,-11.98665 20.13677,-27.58532 29.5,-42.0625 3.57823,-3.99747 6.2674,-8.35082 8.34375,-12.96875 0.95009,-0.1003 1.94309,-0.25306 3.03125,-0.53125 25.07787,-1.48605 51.40748,-1.70134 74.4375,-13.5625 19.05369,-7.74674 30.62169,-24.08761 44.65625,-38.4375 13.78479,-20.02933 20.46752,-45.71897 14.625,-69.40625 0.71258,-26.47071 -12.22601,-50.67374 -20.5,-75.53125 -2.86218,-28.0259 -63.4327,-43.69749 -34.875,-69.28125 21.76066,-26.60129 65.88071,-12.0299 84.5,-37.28125 3.4137,-38.66924 -45.13974,-31.2934 -69.9375,-28.25 -31.96872,3.60416 -66.51222,14.01737 -88.15625,38.84375 -8.83349,32.50374 16.01197,61.71729 39.125,81.71875 16.3402,18.00068 35.51438,38.09761 35.46875,63.4375 1.70918,23.10711 -0.0878,48.39134 -17.71875,65.53125 -14.585,14.40032 -32.18583,11.678 -45.375,1.96875 -0.0168,-0.45828 -0.0383,-0.91632 -0.0625,-1.375 C 479.59653,548.72104 479.47228,530.55343 475.125,513.125 469.85442,489.22127 453.74683,470.48891 441.09375,450.25 428.86904,432.24846 428.82153,408.86828 418,390.9375 c -1.98132,-1.33076 -4.08548,-2.35317 -6.28125,-3.09375 -0.48146,-1.38128 -0.99823,-2.73845 -1.53125,-4.09375 -4.50114,-32.73802 -29.48718,-56.442 -38.40625,-86.84375 -7.49823,-34.69244 12.0796,-69.23937 4.09375,-103.46875 -3.54777,-27.30042 44.95394,-50.46675 24.1875,-72.9375 -28.61682,-4.31356 -62.33271,-6.49454 -85.875,13.8125 -26.89143,3.36679 -60.73494,13.09773 -83.25,-2.4375 -21.7959,-14.55972 -47.50117,-19.81307 -73.28125,-20.71875 z m 90.96875,469.5625 c 5.13775,11.21974 10.81593,22.14891 20.1875,31 3.13737,5.30088 8.25368,9.6484 13.6875,13.6875 -8.94315,7.5786 -18.15141,14.85345 -26.28125,23.40625 -2.60979,2.00668 -5.21739,3.95265 -7.84375,5.875 -0.25319,-2.79691 -0.5048,-5.60205 -0.8125,-8.40625 -3.56114,-11.12191 -7.00111,-23.92413 -3.40625,-35.3125 -0.3601,-10.24484 2.31968,-20.2348 4.46875,-30.25 z m 133.75,71.3125 c 7.27181,2.9799 15.04821,4.58126 22.9375,5.0625 -3.0666,2.40016 -6.26432,4.62301 -9.59375,6.6875 -8.84879,5.90858 -17.74768,11.93879 -26.1875,18.625 -2.47334,-8.46626 -6.59903,-17.22511 -9.84375,-25.6875 7.37291,-1.74733 15.03069,-3.16427 22.6875,-4.6875 z"
       id="path3919"
       inkscape:connector-curvature="0" />
  </g>
</svg>
